<svg width="134" height="144" viewBox="0 0 134 144" fill="none" xmlns="http://www.w3.org/2000/svg">
<g filter="url(#filter0_dd_85376_21995)">
<mask id="path-1-inside-1_85376_21995" fill="white">
<path d="M3.0035 16.0187C3.0035 8.27766 9.27884 2.00234 17.0199 2.00234H116.918C124.659 2.00234 130.934 8.27767 130.934 16.0187V125.98C130.934 133.721 124.659 139.997 116.918 139.997H17.0198C9.27883 139.997 3.0035 133.721 3.0035 125.98V16.0187Z"/>
</mask>
<path d="M3.0035 16.0187C3.0035 8.27766 9.27884 2.00234 17.0199 2.00234H116.918C124.659 2.00234 130.934 8.27767 130.934 16.0187V125.98C130.934 133.721 124.659 139.997 116.918 139.997H17.0198C9.27883 139.997 3.0035 133.721 3.0035 125.98V16.0187Z" fill="white" shape-rendering="crispEdges"/>
<path d="M17.0199 2.00234V2.66978H116.918V2.00234V1.33489H17.0199V2.00234ZM130.934 16.0187H130.267V125.98H130.934H131.601V16.0187H130.934ZM116.918 139.997V139.329H17.0198V139.997V140.664H116.918V139.997ZM3.0035 125.98H3.67095V16.0187H3.0035H2.33606V125.98H3.0035ZM17.0198 139.997V139.329C9.64745 139.329 3.67095 133.353 3.67095 125.98H3.0035H2.33606C2.33606 134.09 8.91021 140.664 17.0198 140.664V139.997ZM130.934 125.98H130.267C130.267 133.353 124.29 139.329 116.918 139.329V139.997V140.664C125.027 140.664 131.601 134.09 131.601 125.98H130.934ZM116.918 2.00234V2.66978C124.29 2.66978 130.267 8.64629 130.267 16.0187H130.934H131.601C131.601 7.90905 125.027 1.33489 116.918 1.33489V2.00234ZM17.0199 2.00234V1.33489C8.91022 1.33489 2.33606 7.90904 2.33606 16.0187H3.0035H3.67095C3.67095 8.64628 9.64746 2.66978 17.0199 2.66978V2.00234Z" fill="#D9D9D9" mask="url(#path-1-inside-1_85376_21995)"/>
<g clip-path="url(#clip0_85376_21995)">
<path d="M61.9543 44.724H58.9477V51.7357H61.9543V44.724Z" fill="#0B0C0C"/>
<path d="M68.4658 44.724H65.4592V51.7357H68.4658V44.724Z" fill="#0B0C0C"/>
<path d="M76.9856 53.7385H56.9414V56.7435H76.9856V53.7385Z" fill="#0B0C0C"/>
<path d="M74.9812 44.724H71.9746V51.7357H74.9812V44.724Z" fill="#0B0C0C"/>
<path d="M66.9635 35.7096L56.9414 40.7179V42.7213H76.9856V40.7179L66.9635 35.7096Z" fill="#0B0C0C"/>
</g>
<path d="M32.6575 95.2681C32.2076 95.2681 31.8009 95.1849 31.4373 95.0185C31.0737 94.849 30.7856 94.6041 30.573 94.2836C30.3635 93.9632 30.2588 93.5703 30.2588 93.1051C30.2588 92.7045 30.3358 92.3748 30.4898 92.116C30.6439 91.8571 30.8519 91.6522 31.1138 91.5013C31.3757 91.3503 31.6684 91.2363 31.992 91.1592C32.3155 91.0822 32.6452 91.0237 32.981 90.9836C33.4062 90.9343 33.7513 90.8943 34.0163 90.8634C34.2813 90.8296 34.4739 90.7756 34.5941 90.7017C34.7142 90.6277 34.7743 90.5076 34.7743 90.3412V90.3088C34.7743 89.9052 34.6603 89.5924 34.4323 89.3706C34.2074 89.1487 33.8715 89.0378 33.4247 89.0378C32.9595 89.0378 32.5928 89.141 32.3247 89.3475C32.0597 89.5508 31.8764 89.7773 31.7747 90.0269L30.476 89.7311C30.63 89.2997 30.855 88.9515 31.1508 88.6865C31.4497 88.4185 31.7932 88.2244 32.1814 88.1042C32.5697 87.9809 32.9779 87.9193 33.4062 87.9193C33.6897 87.9193 33.9901 87.9532 34.3075 88.021C34.628 88.0857 34.9268 88.2059 35.2041 88.3815C35.4845 88.5571 35.7141 88.8083 35.8928 89.1349C36.0715 89.4584 36.1609 89.879 36.1609 90.3966V95.1109H34.8113V94.1403H34.7558C34.6665 94.3191 34.5324 94.4947 34.3537 94.6672C34.175 94.8398 33.9455 94.9831 33.6651 95.0971C33.3847 95.2111 33.0488 95.2681 32.6575 95.2681ZM32.9579 94.1588C33.34 94.1588 33.6666 94.0833 33.9378 93.9324C34.212 93.7814 34.42 93.5842 34.5617 93.3408C34.7065 93.0943 34.7789 92.8308 34.7789 92.5504V91.6353C34.7296 91.6846 34.6341 91.7308 34.4924 91.774C34.3537 91.814 34.195 91.8494 34.0163 91.8803C33.8376 91.908 33.6635 91.9342 33.4941 91.9588C33.3246 91.9804 33.1829 91.9989 33.0688 92.0143C32.8008 92.0482 32.5558 92.1052 32.334 92.1853C32.1152 92.2654 31.9396 92.381 31.8071 92.5319C31.6777 92.6798 31.613 92.877 31.613 93.1235C31.613 93.4656 31.7393 93.7244 31.992 93.9C32.2446 94.0726 32.5666 94.1588 32.9579 94.1588ZM40.9919 95.2542C40.3048 95.2542 39.7132 95.0986 39.2171 94.7874C38.7241 94.4731 38.3451 94.0402 38.0801 93.4887C37.8151 92.9371 37.6826 92.3055 37.6826 91.5937C37.6826 90.8727 37.8182 90.2364 38.0894 89.6849C38.3605 89.1302 38.7426 88.6973 39.2356 88.3861C39.7286 88.0749 40.3094 87.9193 40.978 87.9193C41.5172 87.9193 41.9979 88.0195 42.42 88.2197C42.8422 88.4169 43.1827 88.6942 43.4415 89.0517C43.7034 89.4091 43.859 89.8266 43.9083 90.3042H42.5633C42.4894 89.9714 42.3199 89.6849 42.0549 89.4445C41.793 89.2042 41.4417 89.084 41.0011 89.084C40.616 89.084 40.2786 89.1857 39.9889 89.3891C39.7024 89.5893 39.479 89.8759 39.3188 90.2487C39.1585 90.6185 39.0784 91.056 39.0784 91.5613C39.0784 92.079 39.157 92.5258 39.3141 92.9017C39.4713 93.2776 39.6931 93.5688 39.9797 93.7752C40.2693 93.9817 40.6098 94.0849 41.0011 94.0849C41.263 94.0849 41.5003 94.0371 41.7129 93.9416C41.9286 93.843 42.1088 93.7028 42.2537 93.521C42.4016 93.3392 42.5048 93.1205 42.5633 92.8647H43.9083C43.859 93.3238 43.7095 93.7336 43.46 94.0941C43.2104 94.4546 42.8761 94.7381 42.457 94.9446C42.041 95.151 41.5527 95.2542 40.9919 95.2542ZM48.3765 95.2542C47.6894 95.2542 47.0978 95.0986 46.6017 94.7874C46.1087 94.4731 45.7297 94.0402 45.4647 93.4887C45.1997 92.9371 45.0672 92.3055 45.0672 91.5937C45.0672 90.8727 45.2028 90.2364 45.4739 89.6849C45.7451 89.1302 46.1272 88.6973 46.6202 88.3861C47.1132 88.0749 47.694 87.9193 48.3626 87.9193C48.9018 87.9193 49.3825 88.0195 49.8046 88.2197C50.2268 88.4169 50.5672 88.6942 50.8261 89.0517C51.088 89.4091 51.2436 89.8266 51.2929 90.3042H49.9479C49.874 89.9714 49.7045 89.6849 49.4395 89.4445C49.1776 89.2042 48.8263 89.084 48.3857 89.084C48.0006 89.084 47.6632 89.1857 47.3735 89.3891C47.087 89.5893 46.8636 89.8759 46.7034 90.2487C46.5431 90.6185 46.463 91.056 46.463 91.5613C46.463 92.079 46.5416 92.5258 46.6987 92.9017C46.8559 93.2776 47.0777 93.5688 47.3643 93.7752C47.6539 93.9817 47.9944 94.0849 48.3857 94.0849C48.6476 94.0849 48.8849 94.0371 49.0975 93.9416C49.3132 93.843 49.4934 93.7028 49.6382 93.521C49.7861 93.3392 49.8894 93.1205 49.9479 92.8647H51.2929C51.2436 93.3238 51.0941 93.7336 50.8446 94.0941C50.595 94.4546 50.2607 94.7381 49.8416 94.9446C49.4256 95.151 48.9373 95.2542 48.3765 95.2542ZM55.7611 95.2542C55.0955 95.2542 54.5147 95.1017 54.0186 94.7967C53.5225 94.4916 53.1374 94.0649 52.8632 93.5164C52.5889 92.9679 52.4518 92.327 52.4518 91.5937C52.4518 90.8573 52.5889 90.2133 52.8632 89.6618C53.1374 89.1102 53.5225 88.6819 54.0186 88.3769C54.5147 88.0718 55.0955 87.9193 55.7611 87.9193C56.4266 87.9193 57.0074 88.0718 57.5035 88.3769C57.9996 88.6819 58.3847 89.1102 58.659 89.6618C58.9332 90.2133 59.0703 90.8573 59.0703 91.5937C59.0703 92.327 58.9332 92.9679 58.659 93.5164C58.3847 94.0649 57.9996 94.4916 57.5035 94.7967C57.0074 95.1017 56.4266 95.2542 55.7611 95.2542ZM55.7657 94.0941C56.1971 94.0941 56.5545 93.9801 56.838 93.7521C57.1214 93.5241 57.331 93.2206 57.4665 92.8416C57.6052 92.4626 57.6745 92.0451 57.6745 91.5891C57.6745 91.1361 57.6052 90.7202 57.4665 90.3412C57.331 89.9591 57.1214 89.6525 56.838 89.4214C56.5545 89.1903 56.1971 89.0748 55.7657 89.0748C55.3312 89.0748 54.9707 89.1903 54.6842 89.4214C54.4007 89.6525 54.1896 89.9591 54.051 90.3412C53.9154 90.7202 53.8476 91.1361 53.8476 91.5891C53.8476 92.0451 53.9154 92.4626 54.051 92.8416C54.1896 93.2206 54.4007 93.5241 54.6842 93.7521C54.9707 93.9801 55.3312 94.0941 55.7657 94.0941ZM65.1099 92.1668V88.0118H66.4965V95.1109H65.1377V93.8815H65.0637C64.9004 94.2605 64.6385 94.5763 64.278 94.829C63.9206 95.0786 63.4753 95.2034 62.9423 95.2034C62.4863 95.2034 62.0826 95.1032 61.7314 94.903C61.3832 94.6996 61.109 94.3992 60.9087 94.0017C60.7115 93.6042 60.6129 93.1128 60.6129 92.5273V88.0118H61.9948V92.3609C61.9948 92.8447 62.1288 93.2298 62.3969 93.5164C62.665 93.803 63.0132 93.9462 63.4415 93.9462C63.7003 93.9462 63.9576 93.8815 64.2133 93.7521C64.4721 93.6227 64.6863 93.427 64.8557 93.1651C65.0283 92.9032 65.113 92.5705 65.1099 92.1668ZM69.7353 90.8958V95.1109H68.3533V88.0118H69.6798V89.1672H69.7676C69.9309 88.7913 70.1867 88.4893 70.5349 88.2613C70.8861 88.0333 71.3283 87.9193 71.8613 87.9193C72.3451 87.9193 72.7688 88.021 73.1324 88.2244C73.4959 88.4246 73.7779 88.7235 73.9782 89.121C74.1784 89.5185 74.2786 90.0099 74.2786 90.5954V95.1109H72.8966V90.7618C72.8966 90.2472 72.7626 89.8451 72.4945 89.5555C72.2265 89.2627 71.8583 89.1164 71.3899 89.1164C71.0695 89.1164 70.7844 89.1857 70.5349 89.3244C70.2884 89.463 70.0927 89.6664 69.9479 89.9344C69.8062 90.1994 69.7353 90.5199 69.7353 90.8958ZM79.4458 88.0118V89.121H75.5681V88.0118H79.4458ZM76.608 86.3109H77.9899V93.0265C77.9899 93.2945 78.03 93.4964 78.1101 93.6319C78.1902 93.7644 78.2934 93.8553 78.4198 93.9046C78.5492 93.9509 78.6894 93.974 78.8404 93.974C78.9513 93.974 79.0483 93.9663 79.1315 93.9509C79.2147 93.9354 79.2794 93.9231 79.3257 93.9139L79.5752 95.0555C79.4951 95.0863 79.3811 95.1171 79.2332 95.1479C79.0853 95.1818 78.9004 95.2003 78.6786 95.2034C78.315 95.2095 77.9761 95.1448 77.6618 95.0093C77.3475 94.8737 77.0933 94.6642 76.8992 94.3807C76.7051 94.0972 76.608 93.7413 76.608 93.313V86.3109ZM86.0447 95.1109V96.2849H80.0317V95.1109H86.0447ZM87.0719 95.1109V85.6454H88.4539V89.1626H88.537C88.6172 89.0147 88.7327 88.8437 88.8837 88.6496C89.0347 88.4555 89.2442 88.286 89.5123 88.1412C89.7803 87.9933 90.1347 87.9193 90.5753 87.9193C91.1484 87.9193 91.6599 88.0641 92.1097 88.3538C92.5596 88.6434 92.9124 89.0609 93.1682 89.6063C93.427 90.1517 93.5564 90.808 93.5564 91.5752C93.5564 92.3424 93.4285 93.0003 93.1728 93.5488C92.917 94.0941 92.5658 94.5147 92.119 94.8105C91.6722 95.1032 91.1623 95.2496 90.5892 95.2496C90.1578 95.2496 89.805 95.1772 89.5307 95.0324C89.2596 94.8876 89.047 94.7181 88.8929 94.524C88.7389 94.3298 88.6202 94.1573 88.537 94.0063H88.4215V95.1109H87.0719ZM88.4261 91.5613C88.4261 92.0605 88.4985 92.498 88.6433 92.874C88.7882 93.2499 88.9977 93.5441 89.2719 93.7567C89.5462 93.9663 89.882 94.071 90.2795 94.071C90.6924 94.071 91.0375 93.9616 91.3148 93.7429C91.5921 93.521 91.8016 93.2206 91.9434 92.8416C92.0882 92.4626 92.1606 92.0359 92.1606 91.5613C92.1606 91.093 92.0897 90.6724 91.948 90.2996C91.8093 89.9267 91.5998 89.6325 91.3194 89.4168C91.0421 89.2011 90.6955 89.0933 90.2795 89.0933C89.8789 89.0933 89.54 89.1965 89.2627 89.4029C88.9884 89.6094 88.7805 89.8975 88.6387 90.2672C88.497 90.637 88.4261 91.0683 88.4261 91.5613ZM97.1742 95.2681C96.7243 95.2681 96.3176 95.1849 95.954 95.0185C95.5904 94.849 95.3023 94.6041 95.0897 94.2836C94.8802 93.9632 94.7754 93.5703 94.7754 93.1051C94.7754 92.7045 94.8524 92.3748 95.0065 92.116C95.1606 91.8571 95.3686 91.6522 95.6305 91.5013C95.8924 91.3503 96.1851 91.2363 96.5086 91.1592C96.8321 91.0822 97.1618 91.0237 97.4977 90.9836C97.9229 90.9343 98.268 90.8943 98.533 90.8634C98.798 90.8296 98.9906 90.7756 99.1107 90.7017C99.2309 90.6277 99.291 90.5076 99.291 90.3412V90.3088C99.291 89.9052 99.177 89.5924 98.949 89.3706C98.724 89.1487 98.3882 89.0378 97.9414 89.0378C97.4761 89.0378 97.1095 89.141 96.8414 89.3475C96.5764 89.5508 96.3931 89.7773 96.2914 90.0269L94.9926 89.7311C95.1467 89.2997 95.3716 88.9515 95.6674 88.6865C95.9663 88.4185 96.3099 88.2244 96.6981 88.1042C97.0863 87.9809 97.4946 87.9193 97.9229 87.9193C98.2064 87.9193 98.5068 87.9532 98.8242 88.021C99.1446 88.0857 99.4435 88.2059 99.7208 88.3815C100.001 88.5571 100.231 88.8083 100.409 89.1349C100.588 89.4584 100.678 89.879 100.678 90.3966V95.1109H99.328V94.1403H99.2725C99.1831 94.3191 99.0491 94.4947 98.8704 94.6672C98.6917 94.8398 98.4621 94.9831 98.1817 95.0971C97.9013 95.2111 97.5655 95.2681 97.1742 95.2681ZM97.4746 94.1588C97.8567 94.1588 98.1833 94.0833 98.4544 93.9324C98.7287 93.7814 98.9366 93.5842 99.0784 93.3408C99.2232 93.0943 99.2956 92.8308 99.2956 92.5504V91.6353C99.2463 91.6846 99.1508 91.7308 99.009 91.774C98.8704 91.814 98.7117 91.8494 98.533 91.8803C98.3543 91.908 98.1802 91.9342 98.0107 91.9588C97.8413 91.9804 97.6995 91.9989 97.5855 92.0143C97.3174 92.0482 97.0725 92.1052 96.8506 92.1853C96.6319 92.2654 96.4562 92.381 96.3237 92.5319C96.1943 92.6798 96.1296 92.877 96.1296 93.1235C96.1296 93.4656 96.256 93.7244 96.5086 93.9C96.7613 94.0726 97.0833 94.1588 97.4746 94.1588ZM103.9 85.6454V95.1109H102.518V85.6454H103.9ZM55.1354 111.287C54.6855 111.287 54.2788 111.204 53.9152 111.037C53.5516 110.868 53.2635 110.623 53.0509 110.302C52.8414 109.982 52.7366 109.589 52.7366 109.124C52.7366 108.723 52.8137 108.393 52.9677 108.135C53.1218 107.876 53.3298 107.671 53.5917 107.52C53.8536 107.369 54.1463 107.255 54.4698 107.178C54.7934 107.101 55.1231 107.042 55.4589 107.002C55.8841 106.953 56.2292 106.913 56.4942 106.882C56.7592 106.848 56.9518 106.794 57.0719 106.72C57.1921 106.646 57.2522 106.526 57.2522 106.36V106.328C57.2522 105.924 57.1382 105.611 56.9102 105.389C56.6852 105.167 56.3494 105.056 55.9026 105.056C55.4373 105.056 55.0707 105.16 54.8026 105.366C54.5376 105.57 54.3543 105.796 54.2526 106.046L52.9539 105.75C53.1079 105.318 53.3329 104.97 53.6287 104.705C53.9275 104.437 54.2711 104.243 54.6593 104.123C55.0476 104 55.4558 103.938 55.8841 103.938C56.1676 103.938 56.468 103.972 56.7854 104.04C57.1058 104.104 57.4047 104.225 57.682 104.4C57.9624 104.576 58.192 104.827 58.3707 105.154C58.5494 105.477 58.6388 105.898 58.6388 106.415V111.13H57.2892V110.159H57.2337C57.1444 110.338 57.0103 110.513 56.8316 110.686C56.6529 110.858 56.4233 111.002 56.1429 111.116C55.8626 111.23 55.5267 111.287 55.1354 111.287ZM55.4358 110.178C55.8179 110.178 56.1445 110.102 56.4156 109.951C56.6899 109.8 56.8979 109.603 57.0396 109.359C57.1844 109.113 57.2568 108.85 57.2568 108.569V107.654C57.2075 107.703 57.112 107.75 56.9703 107.793C56.8316 107.833 56.6729 107.868 56.4942 107.899C56.3155 107.927 56.1414 107.953 55.9719 107.978C55.8025 107.999 55.6607 108.018 55.5467 108.033C55.2787 108.067 55.0337 108.124 54.8118 108.204C54.5931 108.284 54.4174 108.4 54.285 108.551C54.1555 108.699 54.0908 108.896 54.0908 109.142C54.0908 109.484 54.2172 109.743 54.4698 109.919C54.7225 110.091 55.0445 110.178 55.4358 110.178ZM61.8614 106.914V111.13H60.4794V104.03H61.8059V105.186H61.8937C62.057 104.81 62.3128 104.508 62.6609 104.28C63.0122 104.052 63.4544 103.938 63.9874 103.938C64.4712 103.938 64.8948 104.04 65.2584 104.243C65.622 104.443 65.9039 104.742 66.1042 105.14C66.3045 105.537 66.4047 106.029 66.4047 106.614V111.13H65.0227V106.78C65.0227 106.266 64.8887 105.864 64.6206 105.574C64.3525 105.281 63.9843 105.135 63.516 105.135C63.1955 105.135 62.9105 105.204 62.6609 105.343C62.4144 105.482 62.2188 105.685 62.074 105.953C61.9322 106.218 61.8614 106.539 61.8614 106.914ZM71.2484 111.273C70.5613 111.273 69.9697 111.117 69.4736 110.806C68.9806 110.492 68.6016 110.059 68.3366 109.507C68.0716 108.956 67.9391 108.324 67.9391 107.612C67.9391 106.891 68.0747 106.255 68.3458 105.704C68.617 105.149 68.9991 104.716 69.4921 104.405C69.9851 104.094 70.5659 103.938 71.2345 103.938C71.7737 103.938 72.2544 104.038 72.6765 104.238C73.0987 104.436 73.4391 104.713 73.698 105.07C73.9599 105.428 74.1155 105.845 74.1648 106.323H72.8198C72.7459 105.99 72.5764 105.704 72.3114 105.463C72.0495 105.223 71.6982 105.103 71.2576 105.103C70.8725 105.103 70.5351 105.204 70.2454 105.408C69.9589 105.608 69.7355 105.895 69.5753 106.267C69.415 106.637 69.3349 107.075 69.3349 107.58C69.3349 108.098 69.4135 108.544 69.5706 108.92C69.7278 109.296 69.9496 109.587 70.2362 109.794C70.5258 110 70.8663 110.104 71.2576 110.104C71.5195 110.104 71.7568 110.056 71.9694 109.96C72.1851 109.862 72.3653 109.721 72.5101 109.54C72.658 109.358 72.7613 109.139 72.8198 108.883H74.1648C74.1155 109.343 73.966 109.752 73.7164 110.113C73.4669 110.473 73.1326 110.757 72.7135 110.963C72.2975 111.17 71.8092 111.273 71.2484 111.273ZM78.7023 111.273C78.0028 111.273 77.4005 111.123 76.8951 110.825C76.3929 110.523 76.0047 110.099 75.7304 109.554C75.4593 109.005 75.3237 108.363 75.3237 107.626C75.3237 106.899 75.4593 106.258 75.7304 105.704C76.0047 105.149 76.3867 104.716 76.8766 104.405C77.3696 104.094 77.9458 103.938 78.6052 103.938C79.0058 103.938 79.394 104.004 79.7699 104.137C80.1459 104.269 80.4832 104.477 80.7821 104.761C81.081 105.044 81.3167 105.412 81.4893 105.865C81.6618 106.315 81.7481 106.862 81.7481 107.506V107.996H76.1048V106.961H80.3939C80.3939 106.597 80.3199 106.275 80.172 105.995C80.0241 105.711 79.8162 105.488 79.5481 105.325C79.2831 105.161 78.9719 105.08 78.6145 105.08C78.2262 105.08 77.8873 105.175 77.5977 105.366C77.3111 105.554 77.0893 105.801 76.9321 106.106C76.778 106.408 76.701 106.736 76.701 107.09V107.899C76.701 108.373 76.7842 108.777 76.9506 109.11C77.1201 109.443 77.3558 109.697 77.6577 109.872C77.9597 110.045 78.3125 110.131 78.7162 110.131C78.9781 110.131 79.2169 110.094 79.4325 110.02C79.6482 109.943 79.8346 109.829 79.9918 109.678C80.1489 109.527 80.2691 109.341 80.3523 109.119L81.6603 109.355C81.5555 109.74 81.3676 110.077 81.0964 110.367C80.8283 110.654 80.491 110.877 80.0842 111.037C79.6806 111.194 79.2199 111.273 78.7023 111.273Z" fill="#505A5F"/>
</g>
<defs>
<filter id="filter0_dd_85376_21995" x="0" y="0" width="133.937" height="144" filterUnits="userSpaceOnUse" color-interpolation-filters="sRGB">
<feFlood flood-opacity="0" result="BackgroundImageFix"/>
<feColorMatrix in="SourceAlpha" type="matrix" values="0 0 0 0 0 0 0 0 0 0 0 0 0 0 0 0 0 0 127 0" result="hardAlpha"/>
<feMorphology radius="1" operator="erode" in="SourceAlpha" result="effect1_dropShadow_85376_21995"/>
<feOffset dy="1"/>
<feGaussianBlur stdDeviation="1"/>
<feComposite in2="hardAlpha" operator="out"/>
<feColorMatrix type="matrix" values="0 0 0 0 0 0 0 0 0 0 0 0 0 0 0 0 0 0 0.1 0"/>
<feBlend mode="normal" in2="BackgroundImageFix" result="effect1_dropShadow_85376_21995"/>
<feColorMatrix in="SourceAlpha" type="matrix" values="0 0 0 0 0 0 0 0 0 0 0 0 0 0 0 0 0 0 127 0" result="hardAlpha"/>
<feOffset dy="1"/>
<feGaussianBlur stdDeviation="1.5"/>
<feComposite in2="hardAlpha" operator="out"/>
<feColorMatrix type="matrix" values="0 0 0 0 0 0 0 0 0 0 0 0 0 0 0 0 0 0 0.1 0"/>
<feBlend mode="normal" in2="effect1_dropShadow_85376_21995" result="effect2_dropShadow_85376_21995"/>
<feBlend mode="normal" in="SourceGraphic" in2="effect2_dropShadow_85376_21995" result="shape"/>
</filter>
<clipPath id="clip0_85376_21995">
<rect width="20.0208" height="21.0104" fill="white" transform="translate(56.9414 35.7096) scale(1.00117)"/>
</clipPath>
</defs>
</svg>
