<svg width="134" height="144" viewBox="0 0 134 144" fill="none" xmlns="http://www.w3.org/2000/svg">
<g filter="url(#filter0_dd_85376_21965)">
<mask id="path-1-inside-1_85376_21965" fill="white">
<path d="M3.0035 16.0187C3.0035 8.27766 9.27884 2.00234 17.0199 2.00234H116.918C124.659 2.00234 130.934 8.27767 130.934 16.0187V125.98C130.934 133.721 124.659 139.997 116.918 139.997H17.0198C9.27883 139.997 3.0035 133.721 3.0035 125.98V16.0187Z"/>
</mask>
<path d="M3.0035 16.0187C3.0035 8.27766 9.27884 2.00234 17.0199 2.00234H116.918C124.659 2.00234 130.934 8.27767 130.934 16.0187V125.98C130.934 133.721 124.659 139.997 116.918 139.997H17.0198C9.27883 139.997 3.0035 133.721 3.0035 125.98V16.0187Z" fill="white" shape-rendering="crispEdges"/>
<path d="M17.0199 2.00234V2.66978H116.918V2.00234V1.33489H17.0199V2.00234ZM130.934 16.0187H130.267V125.98H130.934H131.601V16.0187H130.934ZM116.918 139.997V139.329H17.0198V139.997V140.664H116.918V139.997ZM3.0035 125.98H3.67095V16.0187H3.0035H2.33606V125.98H3.0035ZM17.0198 139.997V139.329C9.64745 139.329 3.67095 133.353 3.67095 125.98H3.0035H2.33606C2.33606 134.09 8.91021 140.664 17.0198 140.664V139.997ZM130.934 125.98H130.267C130.267 133.353 124.29 139.329 116.918 139.329V139.997V140.664C125.027 140.664 131.601 134.09 131.601 125.98H130.934ZM116.918 2.00234V2.66978C124.29 2.66978 130.267 8.64629 130.267 16.0187H130.934H131.601C131.601 7.90905 125.027 1.33489 116.918 1.33489V2.00234ZM17.0199 2.00234V1.33489C8.91022 1.33489 2.33606 7.90904 2.33606 16.0187H3.0035H3.67095C3.67095 8.64628 9.64746 2.66978 17.0199 2.66978V2.00234Z" fill="#D9D9D9" mask="url(#path-1-inside-1_85376_21965)"/>
<g clip-path="url(#clip0_85376_21965)">
<path d="M75.4748 40.7079C72.8617 41.4094 69.7981 41.7101 66.9648 41.7101C64.1315 41.7101 61.068 41.4094 58.4549 40.7079L57.9543 42.7123C59.8165 43.2134 61.959 43.5441 63.9613 43.7145V56.7432H65.9637V50.73H67.966V56.7432H69.9683V43.7145C71.9707 43.5441 74.1132 43.2134 75.9753 42.7123L75.4748 40.7079ZM66.9648 40.7079C68.0661 40.7079 68.9672 39.8059 68.9672 38.7035C68.9672 37.601 68.0661 36.6991 66.9648 36.6991C65.8635 36.6991 64.9625 37.601 64.9625 38.7035C64.9625 39.8059 65.8635 40.7079 66.9648 40.7079Z" fill="#0B0C0C"/>
</g>
<path d="M32.2063 95.2681C31.7564 95.2681 31.3497 95.1849 30.9861 95.0185C30.6225 94.849 30.3344 94.6041 30.1218 94.2836C29.9123 93.9632 29.8075 93.5703 29.8075 93.1051C29.8075 92.7045 29.8846 92.3748 30.0386 92.116C30.1927 91.8571 30.4007 91.6522 30.6626 91.5013C30.9245 91.3503 31.2172 91.2363 31.5407 91.1592C31.8643 91.0822 32.194 91.0237 32.5298 90.9836C32.955 90.9343 33.3001 90.8943 33.5651 90.8634C33.8301 90.8296 34.0227 90.7756 34.1429 90.7017C34.263 90.6277 34.3231 90.5076 34.3231 90.3412V90.3088C34.3231 89.9052 34.2091 89.5924 33.9811 89.3706C33.7562 89.1487 33.4203 89.0378 32.9735 89.0378C32.5083 89.0378 32.1416 89.141 31.8735 89.3475C31.6085 89.5508 31.4252 89.7773 31.3235 90.0269L30.0248 89.7311C30.1788 89.2997 30.4038 88.9515 30.6996 88.6865C30.9984 88.4185 31.342 88.2244 31.7302 88.1042C32.1185 87.9809 32.5267 87.9193 32.955 87.9193C33.2385 87.9193 33.5389 87.9532 33.8563 88.021C34.1767 88.0857 34.4756 88.2059 34.7529 88.3815C35.0333 88.5571 35.2629 88.8083 35.4416 89.1349C35.6203 89.4584 35.7097 89.879 35.7097 90.3966V95.1109H34.3601V94.1403H34.3046C34.2153 94.3191 34.0812 94.4947 33.9025 94.6672C33.7238 94.8398 33.4943 94.9831 33.2139 95.0971C32.9335 95.2111 32.5976 95.2681 32.2063 95.2681ZM32.5067 94.1588C32.8888 94.1588 33.2154 94.0833 33.4865 93.9324C33.7608 93.7814 33.9688 93.5842 34.1105 93.3408C34.2553 93.0943 34.3277 92.8308 34.3277 92.5504V91.6353C34.2784 91.6846 34.1829 91.7308 34.0412 91.774C33.9025 91.814 33.7438 91.8494 33.5651 91.8803C33.3864 91.908 33.2123 91.9342 33.0428 91.9588C32.8734 91.9804 32.7316 91.9989 32.6176 92.0143C32.3496 92.0482 32.1046 92.1052 31.8828 92.1853C31.664 92.2654 31.4884 92.381 31.3559 92.5319C31.2265 92.6798 31.1617 92.877 31.1617 93.1235C31.1617 93.4656 31.2881 93.7244 31.5407 93.9C31.7934 94.0726 32.1154 94.1588 32.5067 94.1588ZM40.5407 95.2542C39.8536 95.2542 39.262 95.0986 38.7659 94.7874C38.2729 94.4731 37.8939 94.0402 37.6289 93.4887C37.3639 92.9371 37.2314 92.3055 37.2314 91.5937C37.2314 90.8727 37.367 90.2364 37.6381 89.6849C37.9093 89.1302 38.2914 88.6973 38.7844 88.3861C39.2774 88.0749 39.8582 87.9193 40.5268 87.9193C41.066 87.9193 41.5467 88.0195 41.9688 88.2197C42.391 88.4169 42.7314 88.6942 42.9903 89.0517C43.2522 89.4091 43.4078 89.8266 43.4571 90.3042H42.1121C42.0382 89.9714 41.8687 89.6849 41.6037 89.4445C41.3418 89.2042 40.9905 89.084 40.5499 89.084C40.1648 89.084 39.8274 89.1857 39.5377 89.3891C39.2512 89.5893 39.0278 89.8759 38.8676 90.2487C38.7073 90.6185 38.6272 91.056 38.6272 91.5613C38.6272 92.079 38.7058 92.5258 38.8629 92.9017C39.0201 93.2776 39.2419 93.5688 39.5285 93.7752C39.8181 93.9817 40.1586 94.0849 40.5499 94.0849C40.8118 94.0849 41.0491 94.0371 41.2617 93.9416C41.4774 93.843 41.6576 93.7028 41.8024 93.521C41.9503 93.3392 42.0536 93.1205 42.1121 92.8647H43.4571C43.4078 93.3238 43.2583 93.7336 43.0088 94.0941C42.7592 94.4546 42.4249 94.7381 42.0058 94.9446C41.5898 95.151 41.1015 95.2542 40.5407 95.2542ZM47.9253 95.2542C47.2381 95.2542 46.6465 95.0986 46.1505 94.7874C45.6575 94.4731 45.2785 94.0402 45.0135 93.4887C44.7485 92.9371 44.616 92.3055 44.616 91.5937C44.616 90.8727 44.7516 90.2364 45.0227 89.6849C45.2939 89.1302 45.676 88.6973 46.169 88.3861C46.662 88.0749 47.2428 87.9193 47.9114 87.9193C48.4506 87.9193 48.9313 88.0195 49.3534 88.2197C49.7756 88.4169 50.116 88.6942 50.3749 89.0517C50.6368 89.4091 50.7924 89.8266 50.8417 90.3042H49.4967C49.4228 89.9714 49.2533 89.6849 48.9883 89.4445C48.7264 89.2042 48.3751 89.084 47.9345 89.084C47.5494 89.084 47.212 89.1857 46.9223 89.3891C46.6358 89.5893 46.4124 89.8759 46.2521 90.2487C46.0919 90.6185 46.0118 91.056 46.0118 91.5613C46.0118 92.079 46.0904 92.5258 46.2475 92.9017C46.4047 93.2776 46.6265 93.5688 46.9131 93.7752C47.2027 93.9817 47.5432 94.0849 47.9345 94.0849C48.1964 94.0849 48.4337 94.0371 48.6463 93.9416C48.862 93.843 49.0422 93.7028 49.187 93.521C49.3349 93.3392 49.4382 93.1205 49.4967 92.8647H50.8417C50.7924 93.3238 50.6429 93.7336 50.3933 94.0941C50.1438 94.4546 49.8094 94.7381 49.3904 94.9446C48.9744 95.151 48.4861 95.2542 47.9253 95.2542ZM55.3792 95.2542C54.6797 95.2542 54.0774 95.1048 53.572 94.8059C53.0698 94.5039 52.6816 94.0803 52.4073 93.5349C52.1362 92.9864 52.0006 92.344 52.0006 91.6076C52.0006 90.8804 52.1362 90.2395 52.4073 89.6849C52.6816 89.1302 53.0636 88.6973 53.5535 88.3861C54.0465 88.0749 54.6227 87.9193 55.2821 87.9193C55.6827 87.9193 56.0709 87.9856 56.4468 88.1181C56.8227 88.2505 57.1601 88.4585 57.459 88.742C57.7579 89.0255 57.9936 89.3937 58.1662 89.8466C58.3387 90.2965 58.425 90.8434 58.425 91.4874V91.9773H52.7817V90.942H57.0708C57.0708 90.5784 56.9968 90.2564 56.8489 89.976C56.701 89.6926 56.4931 89.4692 56.225 89.3059C55.96 89.1426 55.6488 89.0609 55.2914 89.0609C54.9031 89.0609 54.5642 89.1564 54.2746 89.3475C53.988 89.5354 53.7662 89.7819 53.609 90.087C53.4549 90.3889 53.3779 90.7171 53.3779 91.0714V91.8803C53.3779 92.3548 53.4611 92.7584 53.6275 93.0912C53.797 93.424 54.0327 93.6782 54.3346 93.8538C54.6366 94.0263 54.9894 94.1126 55.393 94.1126C55.655 94.1126 55.8938 94.0756 56.1094 94.0017C56.3251 93.9247 56.5115 93.8107 56.6687 93.6597C56.8258 93.5087 56.946 93.3223 57.0292 93.1004L58.3372 93.3361C58.2324 93.7213 58.0445 94.0587 57.7733 94.3483C57.5052 94.6349 57.1678 94.8583 56.7611 95.0185C56.3575 95.1756 55.8968 95.2542 55.3792 95.2542ZM65.2781 89.745L64.0255 89.9668C63.9732 89.8066 63.89 89.6541 63.776 89.5092C63.665 89.3644 63.5141 89.2458 63.323 89.1534C63.132 89.0609 62.8932 89.0147 62.6066 89.0147C62.2153 89.0147 61.8887 89.1025 61.6268 89.2781C61.3649 89.4507 61.2339 89.6741 61.2339 89.9483C61.2339 90.1856 61.3218 90.3766 61.4974 90.5214C61.673 90.6662 61.9565 90.7849 62.3478 90.8773L63.4755 91.1361C64.1288 91.2871 64.6156 91.5198 64.9361 91.834C65.2565 92.1483 65.4167 92.5566 65.4167 93.0588C65.4167 93.484 65.2935 93.863 65.047 94.1958C64.8036 94.5255 64.4631 94.7843 64.0255 94.9723C63.5911 95.1602 63.0873 95.2542 62.5142 95.2542C61.7192 95.2542 61.0706 95.0848 60.5684 94.7458C60.0661 94.4038 59.758 93.9185 59.644 93.2899L60.9797 93.0866C61.0629 93.4347 61.2339 93.6982 61.4928 93.8769C61.7516 94.0525 62.089 94.1403 62.5049 94.1403C62.9579 94.1403 63.3199 94.0464 63.5911 93.8584C63.8622 93.6674 63.9978 93.4347 63.9978 93.1605C63.9978 92.9387 63.9146 92.7522 63.7482 92.6013C63.5849 92.4503 63.3338 92.3363 62.9949 92.2592L61.7932 91.9958C61.1307 91.8448 60.6408 91.6045 60.3234 91.2748C60.0091 90.9451 59.852 90.5276 59.852 90.0223C59.852 89.6032 59.9691 89.2365 60.2033 88.9223C60.4374 88.608 60.761 88.363 61.1739 88.1874C61.5867 88.0087 62.0597 87.9193 62.5928 87.9193C63.36 87.9193 63.9639 88.0857 64.4045 88.4185C64.8452 88.7482 65.1363 89.1903 65.2781 89.745ZM72.2559 89.745L71.0034 89.9668C70.951 89.8066 70.8678 89.6541 70.7538 89.5092C70.6429 89.3644 70.4919 89.2458 70.3009 89.1534C70.1098 89.0609 69.8711 89.0147 69.5845 89.0147C69.1932 89.0147 68.8666 89.1025 68.6047 89.2781C68.3428 89.4507 68.2118 89.6741 68.2118 89.9483C68.2118 90.1856 68.2996 90.3766 68.4752 90.5214C68.6509 90.6662 68.9344 90.7849 69.3257 90.8773L70.4534 91.1361C71.1066 91.2871 71.5935 91.5198 71.9139 91.834C72.2344 92.1483 72.3946 92.5566 72.3946 93.0588C72.3946 93.484 72.2713 93.863 72.0248 94.1958C71.7814 94.5255 71.4409 94.7843 71.0034 94.9723C70.569 95.1602 70.0652 95.2542 69.4921 95.2542C68.6971 95.2542 68.0485 95.0848 67.5463 94.7458C67.044 94.4038 66.7359 93.9185 66.6219 93.2899L67.9576 93.0866C68.0408 93.4347 68.2118 93.6982 68.4706 93.8769C68.7295 94.0525 69.0668 94.1403 69.4828 94.1403C69.9358 94.1403 70.2978 94.0464 70.569 93.8584C70.8401 93.6674 70.9757 93.4347 70.9757 93.1605C70.9757 92.9387 70.8925 92.7522 70.7261 92.6013C70.5628 92.4503 70.3117 92.3363 69.9727 92.2592L68.771 91.9958C68.1086 91.8448 67.6187 91.6045 67.3013 91.2748C66.987 90.9451 66.8299 90.5276 66.8299 90.0223C66.8299 89.6032 66.9469 89.2365 67.1811 88.9223C67.4153 88.608 67.7388 88.363 68.1517 88.1874C68.5646 88.0087 69.0376 87.9193 69.5706 87.9193C70.3379 87.9193 70.9418 88.0857 71.3824 88.4185C71.823 88.7482 72.1142 89.1903 72.2559 89.745ZM73.914 95.1109V88.0118H75.296V95.1109H73.914ZM74.6119 86.9164C74.3716 86.9164 74.1652 86.8363 73.9926 86.676C73.8231 86.5127 73.7384 86.3186 73.7384 86.0937C73.7384 85.8657 73.8231 85.6715 73.9926 85.5113C74.1652 85.348 74.3716 85.2664 74.6119 85.2664C74.8523 85.2664 75.0572 85.348 75.2266 85.5113C75.3992 85.6715 75.4855 85.8657 75.4855 86.0937C75.4855 86.3186 75.3992 86.5127 75.2266 86.676C75.0572 86.8363 74.8523 86.9164 74.6119 86.9164ZM77.266 95.1109V85.6454H78.648V89.1626H78.7312C78.8113 89.0147 78.9268 88.8437 79.0778 88.6496C79.2288 88.4555 79.4383 88.286 79.7064 88.1412C79.9745 87.9933 80.3288 87.9193 80.7694 87.9193C81.3425 87.9193 81.854 88.0641 82.3039 88.3538C82.7537 88.6434 83.1065 89.0609 83.3623 89.6063C83.6211 90.1517 83.7505 90.808 83.7505 91.5752C83.7505 92.3424 83.6227 93.0003 83.3669 93.5488C83.1112 94.0941 82.7599 94.5147 82.3131 94.8105C81.8663 95.1032 81.3564 95.2496 80.7833 95.2496C80.3519 95.2496 79.9991 95.1772 79.7249 95.0324C79.4537 94.8876 79.2411 94.7181 79.0871 94.524C78.933 94.3298 78.8144 94.1573 78.7312 94.0063H78.6156V95.1109H77.266ZM78.6202 91.5613C78.6202 92.0605 78.6927 92.498 78.8375 92.874C78.9823 93.2499 79.1918 93.5441 79.4661 93.7567C79.7403 93.9663 80.0761 94.071 80.4736 94.071C80.8865 94.071 81.2316 93.9616 81.5089 93.7429C81.7862 93.521 81.9958 93.2206 82.1375 92.8416C82.2823 92.4626 82.3547 92.0359 82.3547 91.5613C82.3547 91.093 82.2838 90.6724 82.1421 90.2996C82.0035 89.9267 81.7939 89.6325 81.5135 89.4168C81.2362 89.2011 80.8896 89.0933 80.4736 89.0933C80.0731 89.0933 79.7341 89.1965 79.4568 89.4029C79.1826 89.6094 78.9746 89.8975 78.8329 90.2672C78.6911 90.637 78.6202 91.0683 78.6202 91.5613ZM85.3023 95.1109V88.0118H86.6843V95.1109H85.3023ZM86.0002 86.9164C85.7599 86.9164 85.5534 86.8363 85.3809 86.676C85.2114 86.5127 85.1267 86.3186 85.1267 86.0937C85.1267 85.8657 85.2114 85.6715 85.3809 85.5113C85.5534 85.348 85.7599 85.2664 86.0002 85.2664C86.2406 85.2664 86.4455 85.348 86.6149 85.5113C86.7875 85.6715 86.8738 85.8657 86.8738 86.0937C86.8738 86.3186 86.7875 86.5127 86.6149 86.676C86.4455 86.8363 86.2406 86.9164 86.0002 86.9164ZM89.9253 85.6454V95.1109H88.5434V85.6454H89.9253ZM91.7845 95.1109V88.0118H93.1664V95.1109H91.7845ZM92.4824 86.9164C92.2421 86.9164 92.0356 86.8363 91.8631 86.676C91.6936 86.5127 91.6089 86.3186 91.6089 86.0937C91.6089 85.8657 91.6936 85.6715 91.8631 85.5113C92.0356 85.348 92.2421 85.2664 92.4824 85.2664C92.7227 85.2664 92.9276 85.348 93.0971 85.5113C93.2696 85.6715 93.3559 85.8657 93.3559 86.0937C93.3559 86.3186 93.2696 86.5127 93.0971 86.676C92.9276 86.8363 92.7227 86.9164 92.4824 86.9164ZM98.3395 88.0118V89.121H94.4617V88.0118H98.3395ZM95.5016 86.3109H96.8836V93.0265C96.8836 93.2945 96.9236 93.4964 97.0037 93.6319C97.0838 93.7644 97.1871 93.8553 97.3134 93.9046C97.4428 93.9509 97.583 93.974 97.734 93.974C97.8449 93.974 97.942 93.9663 98.0252 93.9509C98.1084 93.9354 98.1731 93.9231 98.2193 93.9139L98.4689 95.0555C98.3888 95.0863 98.2747 95.1171 98.1268 95.1479C97.9789 95.1818 97.7941 95.2003 97.5722 95.2034C97.2086 95.2095 96.8697 95.1448 96.5554 95.0093C96.2411 94.8737 95.9869 94.6642 95.7928 94.3807C95.5987 94.0972 95.5016 93.7413 95.5016 93.313V86.3109ZM100.742 97.7731C100.535 97.7731 100.347 97.7562 100.178 97.7223C100.008 97.6915 99.882 97.6576 99.7988 97.6206L100.132 96.4883C100.384 96.556 100.609 96.5853 100.806 96.5761C101.004 96.5668 101.178 96.4929 101.329 96.3542C101.483 96.2156 101.618 95.9891 101.735 95.6748L101.906 95.2034L99.3089 88.0118H100.788L102.586 93.521H102.66L104.458 88.0118H105.941L103.016 96.0584C102.88 96.4282 102.708 96.7409 102.498 96.9967C102.288 97.2555 102.039 97.4496 101.749 97.579C101.46 97.7084 101.124 97.7731 100.742 97.7731ZM56.8813 111.13V112.304H50.8682V111.13H56.8813ZM59.7769 106.914V111.13H58.395V104.03H59.7214V105.186H59.8092C59.9726 104.81 60.2283 104.508 60.5765 104.28C60.9277 104.052 61.3699 103.938 61.903 103.938C62.3867 103.938 62.8104 104.04 63.174 104.243C63.5376 104.443 63.8195 104.742 64.0198 105.14C64.22 105.537 64.3202 106.029 64.3202 106.614V111.13H62.9382V106.78C62.9382 106.266 62.8042 105.864 62.5361 105.574C62.2681 105.281 61.8999 105.135 61.4315 105.135C61.1111 105.135 60.8261 105.204 60.5765 105.343C60.33 105.482 60.1343 105.685 59.9895 105.953C59.8478 106.218 59.7769 106.539 59.7769 106.914ZM69.2332 111.273C68.5338 111.273 67.9314 111.123 67.4261 110.825C66.9238 110.523 66.5356 110.099 66.2614 109.554C65.9902 109.005 65.8546 108.363 65.8546 107.626C65.8546 106.899 65.9902 106.258 66.2614 105.704C66.5356 105.149 66.9177 104.716 67.4076 104.405C67.9006 104.094 68.4768 103.938 69.1362 103.938C69.5367 103.938 69.925 104.004 70.3009 104.137C70.6768 104.269 71.0142 104.477 71.3131 104.761C71.612 105.044 71.8477 105.412 72.0202 105.865C72.1928 106.315 72.279 106.862 72.279 107.506V107.996H66.6357V106.961H70.9248C70.9248 106.597 70.8509 106.275 70.703 105.995C70.5551 105.711 70.3471 105.488 70.079 105.325C69.814 105.161 69.5028 105.08 69.1454 105.08C68.7572 105.08 68.4182 105.175 68.1286 105.366C67.8421 105.554 67.6202 105.801 67.4631 106.106C67.309 106.408 67.232 106.736 67.232 107.09V107.899C67.232 108.373 67.3152 108.777 67.4815 109.11C67.651 109.443 67.8867 109.697 68.1887 109.872C68.4907 110.045 68.8435 110.131 69.2471 110.131C69.509 110.131 69.7478 110.094 69.9635 110.02C70.1792 109.943 70.3656 109.829 70.5227 109.678C70.6799 109.527 70.8 109.341 70.8832 109.119L72.1912 109.355C72.0865 109.74 71.8985 110.077 71.6274 110.367C71.3593 110.654 71.0219 110.877 70.6152 111.037C70.2115 111.194 69.7509 111.273 69.2332 111.273ZM75.3387 111.13L73.2496 104.03H74.6778L76.069 109.244H76.1383L77.5341 104.03H78.9623L80.3488 109.221H80.4182L81.8001 104.03H83.2283L81.1438 111.13H79.7341L78.2921 106.004H78.1858L76.7438 111.13H75.3387Z" fill="#505A5F"/>
</g>
<defs>
<filter id="filter0_dd_85376_21965" x="0" y="0" width="133.937" height="144" filterUnits="userSpaceOnUse" color-interpolation-filters="sRGB">
<feFlood flood-opacity="0" result="BackgroundImageFix"/>
<feColorMatrix in="SourceAlpha" type="matrix" values="0 0 0 0 0 0 0 0 0 0 0 0 0 0 0 0 0 0 127 0" result="hardAlpha"/>
<feMorphology radius="1" operator="erode" in="SourceAlpha" result="effect1_dropShadow_85376_21965"/>
<feOffset dy="1"/>
<feGaussianBlur stdDeviation="1"/>
<feComposite in2="hardAlpha" operator="out"/>
<feColorMatrix type="matrix" values="0 0 0 0 0 0 0 0 0 0 0 0 0 0 0 0 0 0 0.1 0"/>
<feBlend mode="normal" in2="BackgroundImageFix" result="effect1_dropShadow_85376_21965"/>
<feColorMatrix in="SourceAlpha" type="matrix" values="0 0 0 0 0 0 0 0 0 0 0 0 0 0 0 0 0 0 127 0" result="hardAlpha"/>
<feOffset dy="1"/>
<feGaussianBlur stdDeviation="1.5"/>
<feComposite in2="hardAlpha" operator="out"/>
<feColorMatrix type="matrix" values="0 0 0 0 0 0 0 0 0 0 0 0 0 0 0 0 0 0 0.1 0"/>
<feBlend mode="normal" in2="effect1_dropShadow_85376_21965" result="effect2_dropShadow_85376_21965"/>
<feBlend mode="normal" in="SourceGraphic" in2="effect2_dropShadow_85376_21965" result="shape"/>
</filter>
<clipPath id="clip0_85376_21965">
<rect width="18" height="20.0208" fill="white" transform="translate(57.9543 36.6991) scale(1.00117)"/>
</clipPath>
</defs>
</svg>
