<svg width="134" height="144" viewBox="0 0 134 144" fill="none" xmlns="http://www.w3.org/2000/svg">
<g filter="url(#filter0_dd_85376_21984)">
<mask id="path-1-inside-1_85376_21984" fill="white">
<path d="M3.0035 16.0187C3.0035 8.27766 9.27884 2.00234 17.0199 2.00234H116.918C124.659 2.00234 130.934 8.27767 130.934 16.0187V125.98C130.934 133.721 124.659 139.997 116.918 139.997H17.0198C9.27883 139.997 3.0035 133.721 3.0035 125.98V16.0187Z"/>
</mask>
<path d="M3.0035 16.0187C3.0035 8.27766 9.27884 2.00234 17.0199 2.00234H116.918C124.659 2.00234 130.934 8.27767 130.934 16.0187V125.98C130.934 133.721 124.659 139.997 116.918 139.997H17.0198C9.27883 139.997 3.0035 133.721 3.0035 125.98V16.0187Z" fill="white" shape-rendering="crispEdges"/>
<path d="M17.0199 2.00234V2.66978H116.918V2.00234V1.33489H17.0199V2.00234ZM130.934 16.0187H130.267V125.98H130.934H131.601V16.0187H130.934ZM116.918 139.997V139.329H17.0198V139.997V140.664H116.918V139.997ZM3.0035 125.98H3.67095V16.0187H3.0035H2.33606V125.98H3.0035ZM17.0198 139.997V139.329C9.64745 139.329 3.67095 133.353 3.67095 125.98H3.0035H2.33606C2.33606 134.09 8.91021 140.664 17.0198 140.664V139.997ZM130.934 125.98H130.267C130.267 133.353 124.29 139.329 116.918 139.329V139.997V140.664C125.027 140.664 131.601 134.09 131.601 125.98H130.934ZM116.918 2.00234V2.66978C124.29 2.66978 130.267 8.64629 130.267 16.0187H130.934H131.601C131.601 7.90905 125.027 1.33489 116.918 1.33489V2.00234ZM17.0199 2.00234V1.33489C8.91022 1.33489 2.33606 7.90904 2.33606 16.0187H3.0035H3.67095C3.67095 8.64628 9.64746 2.66978 17.0199 2.66978V2.00234Z" fill="#D9D9D9" mask="url(#path-1-inside-1_85376_21984)"/>
<g clip-path="url(#clip0_85376_21984)">
<path d="M71.9759 41.2578C73.0846 41.2578 73.9834 40.359 73.9834 39.2502C73.9834 38.1415 73.0846 37.2427 71.9759 37.2427C70.8671 37.2427 69.9683 38.1415 69.9683 39.2502C69.9683 40.359 70.8671 41.2578 71.9759 41.2578Z" fill="#0B0C0C"/>
</g>
<g clip-path="url(#clip1_85376_21984)">
<path d="M68.9741 51.7352H66.9704C66.9704 53.3883 65.6179 54.7408 63.9648 54.7408C62.3117 54.7408 60.9592 53.3883 60.9592 51.7352C60.9592 50.0822 62.3117 48.7297 63.9648 48.7297V46.7259C61.1997 46.7259 58.9555 48.9701 58.9555 51.7352C58.9555 54.5004 61.1997 56.7446 63.9648 56.7446C66.7299 56.7446 68.9741 54.5004 68.9741 51.7352ZM71.9797 48.2287H70.1162L71.7893 44.5519C72.4005 43.2194 71.4186 41.7166 69.9359 41.7166H64.7262C63.9147 41.7166 63.1833 42.1875 62.8527 42.9189L62.1815 44.7222L64.1051 45.2532L64.7563 43.7204H66.9704L65.137 47.828C64.5359 49.1605 65.5277 50.7334 66.9904 50.7334H71.9797V55.7427H73.9834V50.2325C73.9834 49.1304 73.0817 48.2287 71.9797 48.2287Z" fill="#0B0C0C"/>
</g>
<path d="M31.9648 95.2681C31.5149 95.2681 31.1082 95.1849 30.7446 95.0185C30.381 94.849 30.0929 94.6041 29.8803 94.2836C29.6708 93.9632 29.566 93.5703 29.566 93.1051C29.566 92.7045 29.6431 92.3748 29.7971 92.116C29.9512 91.8571 30.1592 91.6522 30.4211 91.5013C30.683 91.3503 30.9757 91.2363 31.2992 91.1592C31.6228 91.0822 31.9525 91.0237 32.2883 90.9836C32.7135 90.9343 33.0586 90.8943 33.3236 90.8634C33.5886 90.8296 33.7812 90.7756 33.9014 90.7017C34.0215 90.6277 34.0816 90.5076 34.0816 90.3412V90.3088C34.0816 89.9052 33.9676 89.5924 33.7396 89.3706C33.5147 89.1487 33.1788 89.0378 32.732 89.0378C32.2668 89.0378 31.9001 89.141 31.632 89.3475C31.367 89.5508 31.1837 89.7773 31.082 90.0269L29.7833 89.7311C29.9373 89.2997 30.1623 88.9515 30.4581 88.6865C30.7569 88.4185 31.1005 88.2244 31.4887 88.1042C31.877 87.9809 32.2852 87.9193 32.7135 87.9193C32.997 87.9193 33.2974 87.9532 33.6148 88.021C33.9353 88.0857 34.2341 88.2059 34.5114 88.3815C34.7918 88.5571 35.0214 88.8083 35.2001 89.1349C35.3788 89.4584 35.4682 89.879 35.4682 90.3966V95.1109H34.1186V94.1403H34.0631C33.9738 94.3191 33.8397 94.4947 33.661 94.6672C33.4823 94.8398 33.2528 94.9831 32.9724 95.0971C32.692 95.2111 32.3561 95.2681 31.9648 95.2681ZM32.2652 94.1588C32.6473 94.1588 32.9739 94.0833 33.2451 93.9324C33.5193 93.7814 33.7273 93.5842 33.869 93.3408C34.0138 93.0943 34.0862 92.8308 34.0862 92.5504V91.6353C34.0369 91.6846 33.9414 91.7308 33.7997 91.774C33.661 91.814 33.5023 91.8494 33.3236 91.8803C33.1449 91.908 32.9708 91.9342 32.8014 91.9588C32.6319 91.9804 32.4902 91.9989 32.3761 92.0143C32.1081 92.0482 31.8631 92.1052 31.6413 92.1853C31.4225 92.2654 31.2469 92.381 31.1144 92.5319C30.985 92.6798 30.9203 92.877 30.9203 93.1235C30.9203 93.4656 31.0466 93.7244 31.2992 93.9C31.5519 94.0726 31.8739 94.1588 32.2652 94.1588ZM40.2992 95.2542C39.6121 95.2542 39.0205 95.0986 38.5244 94.7874C38.0314 94.4731 37.6524 94.0402 37.3874 93.4887C37.1224 92.9371 36.9899 92.3055 36.9899 91.5937C36.9899 90.8727 37.1255 90.2364 37.3966 89.6849C37.6678 89.1302 38.0499 88.6973 38.5429 88.3861C39.0359 88.0749 39.6167 87.9193 40.2853 87.9193C40.8245 87.9193 41.3052 88.0195 41.7273 88.2197C42.1495 88.4169 42.4899 88.6942 42.7488 89.0517C43.0107 89.4091 43.1663 89.8266 43.2156 90.3042H41.8706C41.7967 89.9714 41.6272 89.6849 41.3622 89.4445C41.1003 89.2042 40.749 89.084 40.3084 89.084C39.9233 89.084 39.5859 89.1857 39.2962 89.3891C39.0097 89.5893 38.7863 89.8759 38.6261 90.2487C38.4658 90.6185 38.3857 91.056 38.3857 91.5613C38.3857 92.079 38.4643 92.5258 38.6214 92.9017C38.7786 93.2776 39.0004 93.5688 39.287 93.7752C39.5766 93.9817 39.9171 94.0849 40.3084 94.0849C40.5703 94.0849 40.8076 94.0371 41.0202 93.9416C41.2359 93.843 41.4161 93.7028 41.561 93.521C41.7089 93.3392 41.8121 93.1205 41.8706 92.8647H43.2156C43.1663 93.3238 43.0168 93.7336 42.7673 94.0941C42.5177 94.4546 42.1834 94.7381 41.7643 94.9446C41.3483 95.151 40.86 95.2542 40.2992 95.2542ZM47.6838 95.2542C46.9967 95.2542 46.4051 95.0986 45.909 94.7874C45.416 94.4731 45.037 94.0402 44.772 93.4887C44.507 92.9371 44.3745 92.3055 44.3745 91.5937C44.3745 90.8727 44.5101 90.2364 44.7812 89.6849C45.0524 89.1302 45.4345 88.6973 45.9275 88.3861C46.4205 88.0749 47.0013 87.9193 47.6699 87.9193C48.2091 87.9193 48.6898 88.0195 49.1119 88.2197C49.5341 88.4169 49.8745 88.6942 50.1334 89.0517C50.3953 89.4091 50.5509 89.8266 50.6002 90.3042H49.2552C49.1813 89.9714 49.0118 89.6849 48.7468 89.4445C48.4849 89.2042 48.1336 89.084 47.693 89.084C47.3079 89.084 46.9705 89.1857 46.6808 89.3891C46.3943 89.5893 46.1709 89.8759 46.0107 90.2487C45.8504 90.6185 45.7703 91.056 45.7703 91.5613C45.7703 92.079 45.8489 92.5258 46.006 92.9017C46.1632 93.2776 46.385 93.5688 46.6716 93.7752C46.9612 93.9817 47.3017 94.0849 47.693 94.0849C47.9549 94.0849 48.1922 94.0371 48.4048 93.9416C48.6205 93.843 48.8007 93.7028 48.9455 93.521C49.0934 93.3392 49.1967 93.1205 49.2552 92.8647H50.6002C50.5509 93.3238 50.4014 93.7336 50.1519 94.0941C49.9023 94.4546 49.568 94.7381 49.1489 94.9446C48.7329 95.151 48.2446 95.2542 47.6838 95.2542ZM55.1377 95.2542C54.4382 95.2542 53.8359 95.1048 53.3305 94.8059C52.8283 94.5039 52.4401 94.0803 52.1658 93.5349C51.8947 92.9864 51.7591 92.344 51.7591 91.6076C51.7591 90.8804 51.8947 90.2395 52.1658 89.6849C52.4401 89.1302 52.8221 88.6973 53.3121 88.3861C53.8051 88.0749 54.3812 87.9193 55.0406 87.9193C55.4412 87.9193 55.8294 87.9856 56.2053 88.1181C56.5813 88.2505 56.9187 88.4585 57.2175 88.742C57.5164 89.0255 57.7521 89.3937 57.9247 89.8466C58.0972 90.2965 58.1835 90.8434 58.1835 91.4874V91.9773H52.5402V90.942H56.8293C56.8293 90.5784 56.7553 90.2564 56.6074 89.976C56.4595 89.6926 56.2516 89.4692 55.9835 89.3059C55.7185 89.1426 55.4073 89.0609 55.0499 89.0609C54.6616 89.0609 54.3227 89.1564 54.0331 89.3475C53.7465 89.5354 53.5247 89.7819 53.3675 90.087C53.2135 90.3889 53.1364 90.7171 53.1364 91.0714V91.8803C53.1364 92.3548 53.2196 92.7584 53.386 93.0912C53.5555 93.424 53.7912 93.6782 54.0931 93.8538C54.3951 94.0263 54.7479 94.1126 55.1516 94.1126C55.4135 94.1126 55.6523 94.0756 55.8679 94.0017C56.0836 93.9247 56.27 93.8107 56.4272 93.6597C56.5843 93.5087 56.7045 93.3223 56.7877 93.1004L58.0957 93.3361C57.9909 93.7213 57.803 94.0587 57.5318 94.3483C57.2638 94.6349 56.9264 94.8583 56.5196 95.0185C56.116 95.1756 55.6553 95.2542 55.1377 95.2542ZM65.0366 89.745L63.7841 89.9668C63.7317 89.8066 63.6485 89.6541 63.5345 89.5092C63.4235 89.3644 63.2726 89.2458 63.0815 89.1534C62.8905 89.0609 62.6517 89.0147 62.3651 89.0147C61.9738 89.0147 61.6472 89.1025 61.3853 89.2781C61.1234 89.4507 60.9924 89.6741 60.9924 89.9483C60.9924 90.1856 61.0803 90.3766 61.2559 90.5214C61.4315 90.6662 61.715 90.7849 62.1063 90.8773L63.234 91.1361C63.8873 91.2871 64.3741 91.5198 64.6946 91.834C65.015 92.1483 65.1752 92.5566 65.1752 93.0588C65.1752 93.484 65.052 93.863 64.8055 94.1958C64.5621 94.5255 64.2216 94.7843 63.7841 94.9723C63.3496 95.1602 62.8458 95.2542 62.2727 95.2542C61.4777 95.2542 60.8291 95.0848 60.3269 94.7458C59.8247 94.4038 59.5165 93.9185 59.4025 93.2899L60.7382 93.0866C60.8214 93.4347 60.9924 93.6982 61.2513 93.8769C61.5101 94.0525 61.8475 94.1403 62.2635 94.1403C62.7164 94.1403 63.0784 94.0464 63.3496 93.8584C63.6207 93.6674 63.7563 93.4347 63.7563 93.1605C63.7563 92.9387 63.6731 92.7522 63.5067 92.6013C63.3434 92.4503 63.0923 92.3363 62.7534 92.2592L61.5517 91.9958C60.8892 91.8448 60.3993 91.6045 60.0819 91.2748C59.7676 90.9451 59.6105 90.5276 59.6105 90.0223C59.6105 89.6032 59.7276 89.2365 59.9618 88.9223C60.1959 88.608 60.5195 88.363 60.9324 88.1874C61.3452 88.0087 61.8182 87.9193 62.3513 87.9193C63.1185 87.9193 63.7224 88.0857 64.163 88.4185C64.6037 88.7482 64.8948 89.1903 65.0366 89.745ZM72.0144 89.745L70.7619 89.9668C70.7095 89.8066 70.6263 89.6541 70.5123 89.5092C70.4014 89.3644 70.2504 89.2458 70.0594 89.1534C69.8684 89.0609 69.6296 89.0147 69.343 89.0147C68.9517 89.0147 68.6251 89.1025 68.3632 89.2781C68.1013 89.4507 67.9703 89.6741 67.9703 89.9483C67.9703 90.1856 68.0581 90.3766 68.2338 90.5214C68.4094 90.6662 68.6929 90.7849 69.0842 90.8773L70.2119 91.1361C70.8651 91.2871 71.352 91.5198 71.6724 91.834C71.9929 92.1483 72.1531 92.5566 72.1531 93.0588C72.1531 93.484 72.0298 93.863 71.7834 94.1958C71.5399 94.5255 71.1995 94.7843 70.7619 94.9723C70.3275 95.1602 69.8237 95.2542 69.2506 95.2542C68.4556 95.2542 67.807 95.0848 67.3048 94.7458C66.8025 94.4038 66.4944 93.9185 66.3804 93.2899L67.7161 93.0866C67.7993 93.4347 67.9703 93.6982 68.2291 93.8769C68.488 94.0525 68.8254 94.1403 69.2413 94.1403C69.6943 94.1403 70.0563 94.0464 70.3275 93.8584C70.5986 93.6674 70.7342 93.4347 70.7342 93.1605C70.7342 92.9387 70.651 92.7522 70.4846 92.6013C70.3213 92.4503 70.0702 92.3363 69.7312 92.2592L68.5296 91.9958C67.8671 91.8448 67.3772 91.6045 67.0598 91.2748C66.7455 90.9451 66.5884 90.5276 66.5884 90.0223C66.5884 89.6032 66.7055 89.2365 66.9396 88.9223C67.1738 88.608 67.4973 88.363 67.9102 88.1874C68.3231 88.0087 68.7961 87.9193 69.3291 87.9193C70.0964 87.9193 70.7003 88.0857 71.1409 88.4185C71.5815 88.7482 71.8727 89.1903 72.0144 89.745ZM73.6725 95.1109V88.0118H75.0545V95.1109H73.6725ZM74.3704 86.9164C74.1301 86.9164 73.9237 86.8363 73.7511 86.676C73.5816 86.5127 73.4969 86.3186 73.4969 86.0937C73.4969 85.8657 73.5816 85.6715 73.7511 85.5113C73.9237 85.348 74.1301 85.2664 74.3704 85.2664C74.6108 85.2664 74.8157 85.348 74.9851 85.5113C75.1577 85.6715 75.244 85.8657 75.244 86.0937C75.244 86.3186 75.1577 86.5127 74.9851 86.676C74.8157 86.8363 74.6108 86.9164 74.3704 86.9164ZM77.0245 95.1109V85.6454H78.4065V89.1626H78.4897C78.5698 89.0147 78.6853 88.8437 78.8363 88.6496C78.9873 88.4555 79.1968 88.286 79.4649 88.1412C79.733 87.9933 80.0873 87.9193 80.5279 87.9193C81.101 87.9193 81.6125 88.0641 82.0624 88.3538C82.5122 88.6434 82.8651 89.0609 83.1208 89.6063C83.3796 90.1517 83.509 90.808 83.509 91.5752C83.509 92.3424 83.3812 93.0003 83.1254 93.5488C82.8697 94.0941 82.5184 94.5147 82.0716 94.8105C81.6248 95.1032 81.1149 95.2496 80.5418 95.2496C80.1104 95.2496 79.7576 95.1772 79.4834 95.0324C79.2122 94.8876 78.9996 94.7181 78.8456 94.524C78.6915 94.3298 78.5729 94.1573 78.4897 94.0063H78.3741V95.1109H77.0245ZM78.3788 91.5613C78.3788 92.0605 78.4512 92.498 78.596 92.874C78.7408 93.2499 78.9503 93.5441 79.2246 93.7567C79.4988 93.9663 79.8346 94.071 80.2321 94.071C80.645 94.071 80.9901 93.9616 81.2674 93.7429C81.5447 93.521 81.7543 93.2206 81.896 92.8416C82.0408 92.4626 82.1132 92.0359 82.1132 91.5613C82.1132 91.093 82.0424 90.6724 81.9006 90.2996C81.762 89.9267 81.5524 89.6325 81.272 89.4168C80.9947 89.2011 80.6481 89.0933 80.2321 89.0933C79.8316 89.0933 79.4926 89.1965 79.2153 89.4029C78.9411 89.6094 78.7331 89.8975 78.5914 90.2672C78.4496 90.637 78.3788 91.0683 78.3788 91.5613ZM86.4428 85.6454V95.1109H85.0608V85.6454H86.4428ZM91.3616 95.2542C90.6621 95.2542 90.0598 95.1048 89.5544 94.8059C89.0522 94.5039 88.664 94.0803 88.3897 93.5349C88.1186 92.9864 87.983 92.344 87.983 91.6076C87.983 90.8804 88.1186 90.2395 88.3897 89.6849C88.664 89.1302 89.046 88.6973 89.5359 88.3861C90.0289 88.0749 90.6051 87.9193 91.2645 87.9193C91.6651 87.9193 92.0533 87.9856 92.4292 88.1181C92.8051 88.2505 93.1425 88.4585 93.4414 88.742C93.7403 89.0255 93.976 89.3937 94.1486 89.8466C94.3211 90.2965 94.4074 90.8434 94.4074 91.4874V91.9773H88.7641V90.942H93.0532C93.0532 90.5784 92.9792 90.2564 92.8313 89.976C92.6834 89.6926 92.4755 89.4692 92.2074 89.3059C91.9424 89.1426 91.6312 89.0609 91.2738 89.0609C90.8855 89.0609 90.5466 89.1564 90.257 89.3475C89.9704 89.5354 89.7486 89.7819 89.5914 90.087C89.4373 90.3889 89.3603 90.7171 89.3603 91.0714V91.8803C89.3603 92.3548 89.4435 92.7584 89.6099 93.0912C89.7794 93.424 90.0151 93.6782 90.317 93.8538C90.619 94.0263 90.9718 94.1126 91.3755 94.1126C91.6374 94.1126 91.8762 94.0756 92.0918 94.0017C92.3075 93.9247 92.4939 93.8107 92.6511 93.6597C92.8082 93.5087 92.9284 93.3223 93.0116 93.1004L94.3196 93.3361C94.2148 93.7213 94.0269 94.0587 93.7557 94.3483C93.4876 94.6349 93.1502 94.8583 92.7435 95.0185C92.3399 95.1756 91.8792 95.2542 91.3616 95.2542ZM101.011 95.1109V96.2849H94.9978V95.1109H101.011ZM105.306 88.0118V89.121H101.294V88.0118H105.306ZM102.394 95.1109V87.1891C102.394 86.7454 102.491 86.3772 102.685 86.0844C102.879 85.7886 103.137 85.5683 103.457 85.4235C103.777 85.2756 104.126 85.2017 104.502 85.2017C104.779 85.2017 105.016 85.2248 105.213 85.271C105.411 85.3141 105.557 85.3542 105.652 85.3912L105.329 86.5096C105.264 86.4912 105.181 86.4696 105.079 86.4449C104.978 86.4172 104.854 86.4033 104.71 86.4033C104.374 86.4033 104.133 86.4865 103.989 86.6529C103.847 86.8193 103.776 87.0596 103.776 87.3739V95.1109H102.394ZM49.1709 111.273C48.5053 111.273 47.9245 111.12 47.4284 110.815C46.9323 110.51 46.5472 110.084 46.2729 109.535C45.9987 108.987 45.8616 108.346 45.8616 107.612C45.8616 106.876 45.9987 106.232 46.2729 105.68C46.5472 105.129 46.9323 104.701 47.4284 104.396C47.9245 104.091 48.5053 103.938 49.1709 103.938C49.8364 103.938 50.4172 104.091 50.9133 104.396C51.4094 104.701 51.7945 105.129 52.0688 105.68C52.343 106.232 52.4801 106.876 52.4801 107.612C52.4801 108.346 52.343 108.987 52.0688 109.535C51.7945 110.084 51.4094 110.51 50.9133 110.815C50.4172 111.12 49.8364 111.273 49.1709 111.273ZM49.1755 110.113C49.6069 110.113 49.9643 109.999 50.2478 109.771C50.5312 109.543 50.7408 109.239 50.8763 108.86C51.015 108.481 51.0843 108.064 51.0843 107.608C51.0843 107.155 51.015 106.739 50.8763 106.36C50.7408 105.978 50.5312 105.671 50.2478 105.44C49.9643 105.209 49.6069 105.093 49.1755 105.093C48.741 105.093 48.3805 105.209 48.094 105.44C47.8105 105.671 47.5994 105.978 47.4608 106.36C47.3252 106.739 47.2574 107.155 47.2574 107.608C47.2574 108.064 47.3252 108.481 47.4608 108.86C47.5994 109.239 47.8105 109.543 48.094 109.771C48.3805 109.999 48.741 110.113 49.1755 110.113ZM54.0227 111.13V104.03H55.3584V105.158H55.4323C55.5617 104.776 55.7898 104.476 56.1164 104.257C56.4461 104.035 56.8189 103.924 57.2349 103.924C57.3211 103.924 57.4228 103.927 57.5399 103.933C57.6601 103.94 57.7541 103.947 57.8218 103.956V105.278C57.7664 105.263 57.6678 105.246 57.526 105.228C57.3843 105.206 57.2426 105.195 57.1008 105.195C56.7742 105.195 56.483 105.264 56.2273 105.403C55.9746 105.539 55.7744 105.728 55.6265 105.972C55.4786 106.212 55.4046 106.486 55.4046 106.794V111.13H54.0227ZM60.6712 111.13L58.5821 104.03H60.0103L61.4015 109.244H61.4708L62.8666 104.03H64.2948L65.6813 109.221H65.7507L67.1326 104.03H68.5608L66.4763 111.13H65.0666L63.6246 106.004H63.5183L62.0763 111.13H60.6712ZM71.9382 111.287C71.4883 111.287 71.0816 111.204 70.718 111.037C70.3544 110.868 70.0663 110.623 69.8537 110.302C69.6442 109.982 69.5394 109.589 69.5394 109.124C69.5394 108.723 69.6165 108.393 69.7705 108.135C69.9246 107.876 70.1326 107.671 70.3945 107.52C70.6564 107.369 70.9491 107.255 71.2726 107.178C71.5962 107.101 71.9259 107.042 72.2617 107.002C72.6869 106.953 73.032 106.913 73.297 106.882C73.562 106.848 73.7546 106.794 73.8747 106.72C73.9949 106.646 74.055 106.526 74.055 106.36V106.328C74.055 105.924 73.941 105.611 73.713 105.389C73.488 105.167 73.1522 105.056 72.7054 105.056C72.2401 105.056 71.8735 105.16 71.6054 105.366C71.3404 105.57 71.1571 105.796 71.0554 106.046L69.7567 105.75C69.9107 105.318 70.1357 104.97 70.4315 104.705C70.7303 104.437 71.0739 104.243 71.4621 104.123C71.8504 104 72.2586 103.938 72.6869 103.938C72.9704 103.938 73.2708 103.972 73.5882 104.04C73.9086 104.104 74.2075 104.225 74.4848 104.4C74.7652 104.576 74.9948 104.827 75.1735 105.154C75.3522 105.477 75.4416 105.898 75.4416 106.415V111.13H74.092V110.159H74.0365C73.9472 110.338 73.8131 110.513 73.6344 110.686C73.4557 110.858 73.2261 111.002 72.9457 111.116C72.6654 111.23 72.3295 111.287 71.9382 111.287ZM72.2386 110.178C72.6207 110.178 72.9473 110.102 73.2184 109.951C73.4927 109.8 73.7007 109.603 73.8424 109.359C73.9872 109.113 74.0596 108.85 74.0596 108.569V107.654C74.0103 107.703 73.9148 107.75 73.7731 107.793C73.6344 107.833 73.4757 107.868 73.297 107.899C73.1183 107.927 72.9442 107.953 72.7747 107.978C72.6053 107.999 72.4635 108.018 72.3495 108.033C72.0815 108.067 71.8365 108.124 71.6147 108.204C71.3959 108.284 71.2203 108.4 71.0878 108.551C70.9583 108.699 70.8936 108.896 70.8936 109.142C70.8936 109.484 71.02 109.743 71.2726 109.919C71.5253 110.091 71.8473 110.178 72.2386 110.178ZM77.2822 111.13V104.03H78.6179V105.158H78.6919C78.8213 104.776 79.0493 104.476 79.3759 104.257C79.7056 104.035 80.0784 103.924 80.4944 103.924C80.5807 103.924 80.6824 103.927 80.7995 103.933C80.9196 103.94 81.0136 103.947 81.0814 103.956V105.278C81.0259 105.263 80.9273 105.246 80.7856 105.228C80.6439 105.206 80.5021 105.195 80.3604 105.195C80.0338 105.195 79.7426 105.264 79.4868 105.403C79.2342 105.539 79.0339 105.728 78.886 105.972C78.7381 106.212 78.6642 106.486 78.6642 106.794V111.13H77.2822ZM84.6807 111.268C84.1076 111.268 83.5961 111.122 83.1462 110.829C82.6994 110.533 82.3482 110.113 82.0924 109.567C81.8398 109.019 81.7134 108.361 81.7134 107.594C81.7134 106.827 81.8413 106.17 82.097 105.625C82.3559 105.08 82.7102 104.662 83.1601 104.372C83.6099 104.083 84.1199 103.938 84.6899 103.938C85.1305 103.938 85.4849 104.012 85.7529 104.16C86.0241 104.305 86.2336 104.474 86.3815 104.668C86.5325 104.862 86.6496 105.033 86.7328 105.181H86.816V101.664H88.1979V111.13H86.8483V110.025H86.7328C86.6496 110.176 86.5294 110.349 86.3723 110.543C86.2182 110.737 86.0056 110.906 85.7345 111.051C85.4633 111.196 85.112 111.268 84.6807 111.268ZM84.9857 110.09C85.3832 110.09 85.7191 109.985 85.9933 109.775C86.2706 109.563 86.4801 109.269 86.6219 108.893C86.7667 108.517 86.8391 108.079 86.8391 107.58C86.8391 107.087 86.7682 106.656 86.6265 106.286C86.4847 105.916 86.2768 105.628 86.0025 105.422C85.7283 105.215 85.3894 105.112 84.9857 105.112C84.5697 105.112 84.2231 105.22 83.9458 105.435C83.6685 105.651 83.459 105.945 83.3172 106.318C83.1786 106.691 83.1092 107.112 83.1092 107.58C83.1092 108.055 83.1801 108.481 83.3218 108.86C83.4636 109.239 83.6731 109.54 83.9504 109.762C84.2308 109.98 84.5759 110.09 84.9857 110.09Z" fill="#505A5F"/>
</g>
<defs>
<filter id="filter0_dd_85376_21984" x="0" y="0" width="133.937" height="144" filterUnits="userSpaceOnUse" color-interpolation-filters="sRGB">
<feFlood flood-opacity="0" result="BackgroundImageFix"/>
<feColorMatrix in="SourceAlpha" type="matrix" values="0 0 0 0 0 0 0 0 0 0 0 0 0 0 0 0 0 0 127 0" result="hardAlpha"/>
<feMorphology radius="1" operator="erode" in="SourceAlpha" result="effect1_dropShadow_85376_21984"/>
<feOffset dy="1"/>
<feGaussianBlur stdDeviation="1"/>
<feComposite in2="hardAlpha" operator="out"/>
<feColorMatrix type="matrix" values="0 0 0 0 0 0 0 0 0 0 0 0 0 0 0 0 0 0 0.1 0"/>
<feBlend mode="normal" in2="BackgroundImageFix" result="effect1_dropShadow_85376_21984"/>
<feColorMatrix in="SourceAlpha" type="matrix" values="0 0 0 0 0 0 0 0 0 0 0 0 0 0 0 0 0 0 127 0" result="hardAlpha"/>
<feOffset dy="1"/>
<feGaussianBlur stdDeviation="1.5"/>
<feComposite in2="hardAlpha" operator="out"/>
<feColorMatrix type="matrix" values="0 0 0 0 0 0 0 0 0 0 0 0 0 0 0 0 0 0 0.1 0"/>
<feBlend mode="normal" in2="effect1_dropShadow_85376_21984" result="effect2_dropShadow_85376_21984"/>
<feBlend mode="normal" in="SourceGraphic" in2="effect2_dropShadow_85376_21984" result="shape"/>
</filter>
<clipPath id="clip0_85376_21984">
<rect width="4.01042" height="4.01042" fill="white" transform="translate(69.9683 37.2427) scale(1.00117)"/>
</clipPath>
<clipPath id="clip1_85376_21984">
<rect width="15.0104" height="15.0104" fill="white" transform="translate(58.9555 41.7166) scale(1.00117)"/>
</clipPath>
</defs>
</svg>
