<svg width="134" height="144" viewBox="0 0 134 144" fill="none" xmlns="http://www.w3.org/2000/svg">
<g filter="url(#filter0_dd_85376_21957)">
<mask id="path-1-inside-1_85376_21957" fill="white">
<path d="M3.0035 16.0187C3.0035 8.27766 9.27884 2.00234 17.0199 2.00234H116.918C124.659 2.00234 130.934 8.27767 130.934 16.0187V125.98C130.934 133.721 124.659 139.997 116.918 139.997H17.0198C9.27883 139.997 3.0035 133.721 3.0035 125.98V16.0187Z"/>
</mask>
<path d="M3.0035 16.0187C3.0035 8.27766 9.27884 2.00234 17.0199 2.00234H116.918C124.659 2.00234 130.934 8.27767 130.934 16.0187V125.98C130.934 133.721 124.659 139.997 116.918 139.997H17.0198C9.27883 139.997 3.0035 133.721 3.0035 125.98V16.0187Z" fill="white" shape-rendering="crispEdges"/>
<path d="M17.0199 2.00234V2.66978H116.918V2.00234V1.33489H17.0199V2.00234ZM130.934 16.0187H130.267V125.98H130.934H131.601V16.0187H130.934ZM116.918 139.997V139.329H17.0198V139.997V140.664H116.918V139.997ZM3.0035 125.98H3.67095V16.0187H3.0035H2.33606V125.98H3.0035ZM17.0198 139.997V139.329C9.64745 139.329 3.67095 133.353 3.67095 125.98H3.0035H2.33606C2.33606 134.09 8.91021 140.664 17.0198 140.664V139.997ZM130.934 125.98H130.267C130.267 133.353 124.29 139.329 116.918 139.329V139.997V140.664C125.027 140.664 131.601 134.09 131.601 125.98H130.934ZM116.918 2.00234V2.66978C124.29 2.66978 130.267 8.64629 130.267 16.0187H130.934H131.601C131.601 7.90905 125.027 1.33489 116.918 1.33489V2.00234ZM17.0199 2.00234V1.33489C8.91022 1.33489 2.33606 7.90904 2.33606 16.0187H3.0035H3.67095C3.67095 8.64628 9.64746 2.66978 17.0199 2.66978V2.00234Z" fill="#D9D9D9" mask="url(#path-1-inside-1_85376_21957)"/>
<g clip-path="url(#clip0_85376_21957)">
<path d="M66.9648 44.8335C68.0661 44.8335 68.9672 45.7355 68.9672 46.838C68.9672 47.9404 68.0661 48.8424 66.9648 48.8424C65.8635 48.8424 64.9625 47.9404 64.9625 46.838C64.9625 45.7355 65.8635 44.8335 66.9648 44.8335ZM75.9753 51.849H69.9683V64.8777H67.966V58.8645H65.9637V64.8777H63.9613V51.849H57.9543V49.8446H75.9753V51.849Z" fill="#0B0C0C"/>
</g>
<path d="M31.4843 103.403C31.0344 103.403 30.6277 103.319 30.2641 103.153C29.9005 102.984 29.6124 102.739 29.3998 102.418C29.1903 102.098 29.0855 101.705 29.0855 101.24C29.0855 100.839 29.1625 100.509 29.3166 100.25C29.4707 99.9916 29.6786 99.7867 29.9406 99.6358C30.2025 99.4848 30.4952 99.3708 30.8187 99.2937C31.1422 99.2167 31.4719 99.1582 31.8078 99.1181C32.233 99.0688 32.5781 99.0287 32.8431 98.9979C33.1081 98.964 33.3007 98.9101 33.4208 98.8362C33.541 98.7622 33.6011 98.642 33.6011 98.4757V98.4433C33.6011 98.0397 33.4871 97.7269 33.2591 97.5051C33.0341 97.2832 32.6983 97.1723 32.2515 97.1723C31.7862 97.1723 31.4196 97.2755 31.1515 97.482C30.8865 97.6853 30.7032 97.9118 30.6015 98.1614L29.3027 97.8656C29.4568 97.4342 29.6817 97.086 29.9775 96.821C30.2764 96.553 30.62 96.3588 31.0082 96.2387C31.3964 96.1154 31.8047 96.0538 32.233 96.0538C32.5165 96.0538 32.8169 96.0877 33.1343 96.1555C33.4547 96.2202 33.7536 96.3404 34.0309 96.516C34.3113 96.6916 34.5409 96.9427 34.7196 97.2694C34.8983 97.5929 34.9876 98.0135 34.9876 98.5311V103.245H33.638V102.275H33.5826C33.4932 102.454 33.3592 102.629 33.1805 102.802C33.0018 102.974 32.7722 103.118 32.4918 103.232C32.2114 103.346 31.8756 103.403 31.4843 103.403ZM31.7847 102.293C32.1668 102.293 32.4934 102.218 32.7645 102.067C33.0387 101.916 33.2467 101.719 33.3885 101.475C33.5333 101.229 33.6057 100.965 33.6057 100.685V99.7698C33.5564 99.8191 33.4609 99.8653 33.3191 99.9084C33.1805 99.9485 33.0218 99.9839 32.8431 100.015C32.6644 100.042 32.4903 100.069 32.3208 100.093C32.1513 100.115 32.0096 100.133 31.8956 100.149C31.6275 100.183 31.3826 100.24 31.1607 100.32C30.942 100.4 30.7663 100.515 30.6338 100.666C30.5044 100.814 30.4397 101.012 30.4397 101.258C30.4397 101.6 30.566 101.859 30.8187 102.035C31.0714 102.207 31.3934 102.293 31.7847 102.293ZM39.8186 103.389C39.1315 103.389 38.5399 103.233 38.0438 102.922C37.5508 102.608 37.1719 102.175 36.9069 101.623C36.6419 101.072 36.5094 100.44 36.5094 99.7282C36.5094 99.0072 36.645 98.3709 36.9161 97.8194C37.1873 97.2647 37.5693 96.8318 38.0623 96.5206C38.5553 96.2094 39.1361 96.0538 39.8048 96.0538C40.344 96.0538 40.8247 96.1539 41.2468 96.3542C41.6689 96.5514 42.0094 96.8287 42.2682 97.1862C42.5301 97.5436 42.6857 97.9611 42.735 98.4387H41.3901C41.3161 98.1059 41.1467 97.8194 40.8817 97.579C40.6198 97.3387 40.2685 97.2185 39.8279 97.2185C39.4427 97.2185 39.1053 97.3202 38.8157 97.5236C38.5291 97.7238 38.3057 98.0104 38.1455 98.3832C37.9853 98.753 37.9052 99.1905 37.9052 99.6958C37.9052 100.213 37.9838 100.66 38.1409 101.036C38.298 101.412 38.5199 101.703 38.8065 101.91C39.0961 102.116 39.4366 102.219 39.8279 102.219C40.0898 102.219 40.327 102.172 40.5397 102.076C40.7553 101.977 40.9356 101.837 41.0804 101.656C41.2283 101.474 41.3315 101.255 41.3901 100.999H42.735C42.6857 101.458 42.5363 101.868 42.2867 102.229C42.0371 102.589 41.7028 102.873 41.2838 103.079C40.8678 103.285 40.3794 103.389 39.8186 103.389ZM47.2032 103.389C46.5161 103.389 45.9245 103.233 45.4284 102.922C44.9354 102.608 44.5564 102.175 44.2915 101.623C44.0265 101.072 43.894 100.44 43.894 99.7282C43.894 99.0072 44.0295 98.3709 44.3007 97.8194C44.5718 97.2647 44.9539 96.8318 45.4469 96.5206C45.9399 96.2094 46.5207 96.0538 47.1894 96.0538C47.7286 96.0538 48.2093 96.1539 48.6314 96.3542C49.0535 96.5514 49.394 96.8287 49.6528 97.1862C49.9147 97.5436 50.0703 97.9611 50.1196 98.4387H48.7747C48.7007 98.1059 48.5312 97.8194 48.2663 97.579C48.0044 97.3387 47.6531 97.2185 47.2125 97.2185C46.8273 97.2185 46.4899 97.3202 46.2003 97.5236C45.9137 97.7238 45.6903 98.0104 45.5301 98.3832C45.3699 98.753 45.2898 99.1905 45.2898 99.6958C45.2898 100.213 45.3683 100.66 45.5255 101.036C45.6826 101.412 45.9045 101.703 46.191 101.91C46.4807 102.116 46.8212 102.219 47.2125 102.219C47.4744 102.219 47.7116 102.172 47.9242 102.076C48.1399 101.977 48.3202 101.837 48.465 101.656C48.6129 101.474 48.7161 101.255 48.7747 100.999H50.1196C50.0703 101.458 49.9209 101.868 49.6713 102.229C49.4217 102.589 49.0874 102.873 48.6684 103.079C48.2524 103.285 47.764 103.389 47.2032 103.389ZM54.6571 103.389C53.9577 103.389 53.3553 103.239 52.85 102.94C52.3478 102.638 51.9595 102.215 51.6853 101.669C51.4141 101.121 51.2786 100.478 51.2786 99.7421C51.2786 99.0149 51.4141 98.374 51.6853 97.8194C51.9595 97.2647 52.3416 96.8318 52.8315 96.5206C53.3245 96.2094 53.9007 96.0538 54.5601 96.0538C54.9607 96.0538 55.3489 96.1201 55.7248 96.2525C56.1007 96.385 56.4381 96.593 56.737 96.8765C57.0359 97.16 57.2716 97.5282 57.4441 97.9811C57.6167 98.431 57.703 98.9779 57.703 99.6219V100.112H52.0597V99.0765H56.3488C56.3488 98.7129 56.2748 98.3909 56.1269 98.1105C55.979 97.8271 55.771 97.6037 55.503 97.4404C55.238 97.2771 54.9268 97.1954 54.5693 97.1954C54.1811 97.1954 53.8422 97.2909 53.5525 97.482C53.266 97.6699 53.0441 97.9164 52.887 98.2215C52.7329 98.5234 52.6559 98.8516 52.6559 99.2059V100.015C52.6559 100.489 52.7391 100.893 52.9055 101.226C53.0749 101.558 53.3106 101.813 53.6126 101.988C53.9146 102.161 54.2674 102.247 54.671 102.247C54.9329 102.247 55.1717 102.21 55.3874 102.136C55.6031 102.059 55.7895 101.945 55.9467 101.794C56.1038 101.643 56.224 101.457 56.3072 101.235L57.6151 101.471C57.5104 101.856 57.3224 102.193 57.0513 102.483C56.7832 102.769 56.4458 102.993 56.0391 103.153C55.6354 103.31 55.1748 103.389 54.6571 103.389ZM64.556 97.8794L63.3035 98.1013C63.2511 97.9411 63.1679 97.7885 63.0539 97.6437C62.943 97.4989 62.792 97.3803 62.601 97.2878C62.4099 97.1954 62.1712 97.1492 61.8846 97.1492C61.4933 97.1492 61.1667 97.237 60.9048 97.4126C60.6429 97.5852 60.5119 97.8086 60.5119 98.0828C60.5119 98.3201 60.5997 98.5111 60.7753 98.6559C60.951 98.8007 61.2345 98.9194 61.6258 99.0118L62.7535 99.2706C63.4067 99.4216 63.8936 99.6542 64.214 99.9685C64.5345 100.283 64.6947 100.691 64.6947 101.193C64.6947 101.619 64.5714 101.998 64.3249 102.33C64.0815 102.66 63.741 102.919 63.3035 103.107C62.8691 103.295 62.3653 103.389 61.7922 103.389C60.9972 103.389 60.3486 103.219 59.8464 102.88C59.3441 102.538 59.036 102.053 58.922 101.424L60.2577 101.221C60.3409 101.569 60.5119 101.833 60.7707 102.011C61.0296 102.187 61.3669 102.275 61.7829 102.275C62.2359 102.275 62.5979 102.181 62.8691 101.993C63.1402 101.802 63.2758 101.569 63.2758 101.295C63.2758 101.073 63.1926 100.887 63.0262 100.736C62.8629 100.585 62.6118 100.471 62.2728 100.394L61.0711 100.13C60.4087 99.9793 59.9188 99.739 59.6014 99.4093C59.2871 99.0796 59.13 98.6621 59.13 98.1568C59.13 97.7377 59.2471 97.371 59.4812 97.0567C59.7154 96.7425 60.0389 96.4975 60.4518 96.3219C60.8647 96.1432 61.3377 96.0538 61.8707 96.0538C62.638 96.0538 63.2419 96.2202 63.6825 96.553C64.1231 96.8827 64.4143 97.3248 64.556 97.8794ZM71.5339 97.8794L70.2814 98.1013C70.229 97.9411 70.1458 97.7885 70.0318 97.6437C69.9209 97.4989 69.7699 97.3803 69.5789 97.2878C69.3878 97.1954 69.149 97.1492 68.8625 97.1492C68.4711 97.1492 68.1445 97.237 67.8826 97.4126C67.6207 97.5852 67.4898 97.8086 67.4898 98.0828C67.4898 98.3201 67.5776 98.5111 67.7532 98.6559C67.9288 98.8007 68.2123 98.9194 68.6036 99.0118L69.7314 99.2706C70.3846 99.4216 70.8714 99.6542 71.1919 99.9685C71.5123 100.283 71.6726 100.691 71.6726 101.193C71.6726 101.619 71.5493 101.998 71.3028 102.33C71.0594 102.66 70.7189 102.919 70.2814 103.107C69.8469 103.295 69.3431 103.389 68.77 103.389C67.9751 103.389 67.3265 103.219 66.8242 102.88C66.322 102.538 66.0139 102.053 65.8998 101.424L67.2356 101.221C67.3188 101.569 67.4898 101.833 67.7486 102.011C68.0074 102.187 68.3448 102.275 68.7608 102.275C69.2137 102.275 69.5758 102.181 69.8469 101.993C70.1181 101.802 70.2536 101.569 70.2536 101.295C70.2536 101.073 70.1705 100.887 70.0041 100.736C69.8408 100.585 69.5896 100.471 69.2507 100.394L68.049 100.13C67.3865 99.9793 66.8966 99.739 66.5793 99.4093C66.265 99.0796 66.1078 98.6621 66.1078 98.1568C66.1078 97.7377 66.2249 97.371 66.4591 97.0567C66.6933 96.7425 67.0168 96.4975 67.4297 96.3219C67.8426 96.1432 68.3155 96.0538 68.8486 96.0538C69.6158 96.0538 70.2198 96.2202 70.6604 96.553C71.101 96.8827 71.3922 97.3248 71.5339 97.8794ZM73.192 103.245V96.1462H74.5739V103.245H73.192ZM73.8899 95.0509C73.6496 95.0509 73.4431 94.9707 73.2706 94.8105C73.1011 94.6472 73.0164 94.4531 73.0164 94.2282C73.0164 94.0002 73.1011 93.806 73.2706 93.6458C73.4431 93.4825 73.6496 93.4009 73.8899 93.4009C74.1302 93.4009 74.3351 93.4825 74.5046 93.6458C74.6772 93.806 74.7634 94.0002 74.7634 94.2282C74.7634 94.4531 74.6772 94.6472 74.5046 94.8105C74.3351 94.9707 74.1302 95.0509 73.8899 95.0509ZM76.544 103.245V93.7798H77.9259V97.2971H78.0091C78.0893 97.1492 78.2048 96.9782 78.3558 96.7841C78.5068 96.5899 78.7163 96.4205 78.9844 96.2757C79.2524 96.1278 79.6068 96.0538 80.0474 96.0538C80.6205 96.0538 81.132 96.1986 81.5818 96.4883C82.0317 96.7779 82.3845 97.1954 82.6403 97.7408C82.8991 98.2862 83.0285 98.9425 83.0285 99.7097C83.0285 100.477 82.9006 101.135 82.6449 101.683C82.3891 102.229 82.0379 102.649 81.5911 102.945C81.1443 103.238 80.6344 103.384 80.0612 103.384C79.6299 103.384 79.2771 103.312 79.0028 103.167C78.7317 103.022 78.5191 102.853 78.365 102.658C78.211 102.464 78.0923 102.292 78.0091 102.141H77.8936V103.245H76.544ZM77.8982 99.6958C77.8982 100.195 77.9706 100.633 78.1154 101.008C78.2603 101.384 78.4698 101.679 78.744 101.891C79.0182 102.101 79.3541 102.206 79.7516 102.206C80.1645 102.206 80.5096 102.096 80.7869 101.877C81.0642 101.656 81.2737 101.355 81.4155 100.976C81.5603 100.597 81.6327 100.17 81.6327 99.6958C81.6327 99.2275 81.5618 98.8069 81.4201 98.4341C81.2814 98.0612 81.0719 97.767 80.7915 97.5513C80.5142 97.3356 80.1676 97.2278 79.7516 97.2278C79.351 97.2278 79.0121 97.331 78.7348 97.5374C78.4605 97.7439 78.2526 98.032 78.1108 98.4017C77.9691 98.7715 77.8982 99.2028 77.8982 99.6958ZM84.5803 103.245V96.1462H85.9622V103.245H84.5803ZM85.2782 95.0509C85.0378 95.0509 84.8314 94.9707 84.6589 94.8105C84.4894 94.6472 84.4047 94.4531 84.4047 94.2282C84.4047 94.0002 84.4894 93.806 84.6589 93.6458C84.8314 93.4825 85.0378 93.4009 85.2782 93.4009C85.5185 93.4009 85.7234 93.4825 85.8929 93.6458C86.0654 93.806 86.1517 94.0002 86.1517 94.2282C86.1517 94.4531 86.0654 94.6472 85.8929 94.8105C85.7234 94.9707 85.5185 95.0509 85.2782 95.0509ZM89.2033 93.7798V103.245H87.8214V93.7798H89.2033ZM91.0625 103.245V96.1462H92.4444V103.245H91.0625ZM91.7604 95.0509C91.52 95.0509 91.3136 94.9707 91.141 94.8105C90.9716 94.6472 90.8868 94.4531 90.8868 94.2282C90.8868 94.0002 90.9716 93.806 91.141 93.6458C91.3136 93.4825 91.52 93.4009 91.7604 93.4009C92.0007 93.4009 92.2056 93.4825 92.3751 93.6458C92.5476 93.806 92.6339 94.0002 92.6339 94.2282C92.6339 94.4531 92.5476 94.6472 92.3751 94.8105C92.2056 94.9707 92.0007 95.0509 91.7604 95.0509ZM97.6174 96.1462V97.2555H93.7397V96.1462H97.6174ZM94.7796 94.4454H96.1615V101.161C96.1615 101.429 96.2016 101.631 96.2817 101.766C96.3618 101.899 96.465 101.99 96.5914 102.039C96.7208 102.085 96.861 102.108 97.012 102.108C97.1229 102.108 97.2199 102.101 97.3031 102.085C97.3863 102.07 97.451 102.058 97.4972 102.048L97.7468 103.19C97.6667 103.221 97.5527 103.252 97.4048 103.282C97.2569 103.316 97.072 103.335 96.8502 103.338C96.4866 103.344 96.1477 103.279 95.8334 103.144C95.5191 103.008 95.2649 102.799 95.0708 102.515C94.8766 102.232 94.7796 101.876 94.7796 101.448V94.4454ZM100.02 105.908C99.8132 105.908 99.6252 105.891 99.4558 105.857C99.2863 105.826 99.16 105.792 99.0768 105.755L99.4095 104.623C99.6622 104.691 99.8871 104.72 100.084 104.711C100.282 104.701 100.456 104.627 100.607 104.489C100.761 104.35 100.896 104.124 101.013 103.809L101.184 103.338L98.5869 96.1462H100.066L101.864 101.656H101.938L103.736 96.1462H105.219L102.294 104.193C102.158 104.563 101.985 104.875 101.776 105.131C101.566 105.39 101.317 105.584 101.027 105.714C100.738 105.843 100.402 105.908 100.02 105.908Z" fill="#505A5F"/>
</g>
<defs>
<filter id="filter0_dd_85376_21957" x="0" y="0" width="133.937" height="144" filterUnits="userSpaceOnUse" color-interpolation-filters="sRGB">
<feFlood flood-opacity="0" result="BackgroundImageFix"/>
<feColorMatrix in="SourceAlpha" type="matrix" values="0 0 0 0 0 0 0 0 0 0 0 0 0 0 0 0 0 0 127 0" result="hardAlpha"/>
<feMorphology radius="1" operator="erode" in="SourceAlpha" result="effect1_dropShadow_85376_21957"/>
<feOffset dy="1"/>
<feGaussianBlur stdDeviation="1"/>
<feComposite in2="hardAlpha" operator="out"/>
<feColorMatrix type="matrix" values="0 0 0 0 0 0 0 0 0 0 0 0 0 0 0 0 0 0 0.1 0"/>
<feBlend mode="normal" in2="BackgroundImageFix" result="effect1_dropShadow_85376_21957"/>
<feColorMatrix in="SourceAlpha" type="matrix" values="0 0 0 0 0 0 0 0 0 0 0 0 0 0 0 0 0 0 127 0" result="hardAlpha"/>
<feOffset dy="1"/>
<feGaussianBlur stdDeviation="1.5"/>
<feComposite in2="hardAlpha" operator="out"/>
<feColorMatrix type="matrix" values="0 0 0 0 0 0 0 0 0 0 0 0 0 0 0 0 0 0 0.1 0"/>
<feBlend mode="normal" in2="effect1_dropShadow_85376_21957" result="effect2_dropShadow_85376_21957"/>
<feBlend mode="normal" in="SourceGraphic" in2="effect2_dropShadow_85376_21957" result="shape"/>
</filter>
<clipPath id="clip0_85376_21957">
<rect width="18" height="20.0208" fill="white" transform="translate(57.9543 44.8335) scale(1.00117)"/>
</clipPath>
</defs>
</svg>
