<svg width="134" height="144" viewBox="0 0 134 144" fill="none" xmlns="http://www.w3.org/2000/svg">
<g filter="url(#filter0_dd_85376_21949)">
<mask id="path-1-inside-1_85376_21949" fill="white">
<path d="M3.0035 16.0187C3.0035 8.27766 9.27884 2.00234 17.0199 2.00234H116.907C124.648 2.00234 130.924 8.27767 130.924 16.0187V125.98C130.924 133.721 124.648 139.997 116.907 139.997H17.0199C9.27884 139.997 3.0035 133.721 3.0035 125.98V16.0187Z"/>
</mask>
<path d="M3.0035 16.0187C3.0035 8.27766 9.27884 2.00234 17.0199 2.00234H116.907C124.648 2.00234 130.924 8.27767 130.924 16.0187V125.98C130.924 133.721 124.648 139.997 116.907 139.997H17.0199C9.27884 139.997 3.0035 133.721 3.0035 125.98V16.0187Z" fill="white" shape-rendering="crispEdges"/>
<path d="M17.0199 2.00234V2.66978H116.907V2.00234V1.33489H17.0199V2.00234ZM130.924 16.0187H130.256V125.98H130.924H131.591V16.0187H130.924ZM116.907 139.997V139.329H17.0199V139.997V140.664H116.907V139.997ZM3.0035 125.98H3.67095V16.0187H3.0035H2.33606V125.98H3.0035ZM17.0199 139.997V139.329C9.64746 139.329 3.67095 133.353 3.67095 125.98H3.0035H2.33606C2.33606 134.09 8.91022 140.664 17.0199 140.664V139.997ZM130.924 125.98H130.256C130.256 133.353 124.28 139.329 116.907 139.329V139.997V140.664C125.017 140.664 131.591 134.09 131.591 125.98H130.924ZM116.907 2.00234V2.66978C124.28 2.66978 130.256 8.64629 130.256 16.0187H130.924H131.591C131.591 7.90905 125.017 1.33489 116.907 1.33489V2.00234ZM17.0199 2.00234V1.33489C8.91022 1.33489 2.33606 7.90904 2.33606 16.0187H3.0035H3.67095C3.67095 8.64628 9.64746 2.66978 17.0199 2.66978V2.00234Z" fill="#D9D9D9" mask="url(#path-1-inside-1_85376_21949)"/>
<g clip-path="url(#clip0_85376_21949)">
<g clip-path="url(#clip1_85376_21949)">
<path d="M62.4776 64.348C59.2016 62.8062 56.8573 59.6225 56.4966 55.8581H54.9938C55.5048 62.0253 60.6643 66.871 66.9659 66.871L67.6271 66.8409L63.8101 63.0265L62.4776 64.348ZM63.3693 57.8204C63.1789 57.8204 62.9986 57.7904 62.8483 57.7403C62.688 57.6802 62.5578 57.6102 62.4476 57.5C62.3374 57.3999 62.2472 57.2798 62.1871 57.1296C62.127 56.9894 62.0969 56.8293 62.0969 56.6591H60.7945C60.7945 57.0195 60.8647 57.3399 61.0049 57.6102C61.1452 57.8805 61.3355 58.1108 61.5659 58.301C61.8064 58.4812 62.0769 58.6213 62.3875 58.7115C62.688 58.8116 63.0086 58.8616 63.3492 58.8616C63.7199 58.8616 64.0706 58.8116 64.3811 58.7115C64.7017 58.6113 64.9822 58.4612 65.2127 58.2709C65.4431 58.0807 65.6334 57.8404 65.7637 57.5501C65.8939 57.2598 65.9641 56.9394 65.9641 56.579C65.9641 56.3887 65.944 56.1985 65.8939 56.0183C65.8438 55.8381 65.7737 55.6679 65.6635 55.5077C65.5633 55.3475 65.4231 55.2074 65.2628 55.0772C65.0924 54.9471 64.8921 54.8469 64.6516 54.7669C64.852 54.6767 65.0223 54.5666 65.1726 54.4365C65.3229 54.3063 65.4431 54.1662 65.5433 54.016C65.6435 53.8658 65.7136 53.7156 65.7637 53.5554C65.8138 53.3953 65.8338 53.2351 65.8338 53.0749C65.8338 52.7145 65.7737 52.3941 65.6535 52.1138C65.5333 51.8334 65.3629 51.6032 65.1425 51.423C64.9422 51.2327 64.6717 51.0926 64.3711 50.9924C64.0605 50.9023 63.7199 50.8523 63.3492 50.8523C62.9886 50.8523 62.658 50.9023 62.3474 51.0125C62.0468 51.1226 61.7763 51.2728 61.5559 51.463C61.3455 51.6532 61.1752 51.8735 61.045 52.1338C60.9248 52.3941 60.8647 52.6744 60.8647 52.9848H62.1671C62.1671 52.8146 62.1971 52.6644 62.2572 52.5342C62.3173 52.4041 62.3975 52.284 62.5077 52.1939C62.6179 52.1037 62.7381 52.0237 62.8884 51.9736C63.0387 51.9235 63.1889 51.8935 63.3693 51.8935C63.77 51.8935 64.0706 51.9936 64.2609 52.2039C64.4513 52.4041 64.5515 52.6944 64.5515 53.0649C64.5515 53.2451 64.5214 53.4053 64.4713 53.5554C64.4212 53.7056 64.331 53.8258 64.2208 53.9259C64.1106 54.026 63.9704 54.1061 63.8101 54.1662C63.6498 54.2262 63.4494 54.2563 63.229 54.2563H62.4576V55.2875H63.229C63.4494 55.2875 63.6498 55.3075 63.8301 55.3575C64.0105 55.4076 64.1607 55.4877 64.281 55.5878C64.4012 55.6979 64.5014 55.8281 64.5715 55.9883C64.6416 56.1485 64.6717 56.3387 64.6717 56.5589C64.6717 56.9694 64.5515 57.2798 64.321 57.49C64.0906 57.7203 63.77 57.8204 63.3693 57.8204ZM71.9351 51.8935C71.6145 51.5631 71.2338 51.3028 70.793 51.1226C70.3622 50.9424 69.8713 50.8523 69.3303 50.8523H66.9659V58.8616H69.2702C69.8212 58.8616 70.3321 58.7715 70.7829 58.5913C71.2338 58.4111 71.6245 58.1608 71.9451 57.8304C72.2657 57.5 72.5161 57.0996 72.6864 56.639C72.8568 56.1685 72.9469 55.6479 72.9469 55.0672V54.6667C72.9469 54.0861 72.8568 53.5655 72.6864 53.0949C72.5061 52.6244 72.2557 52.2239 71.9351 51.8935ZM71.5443 55.0572C71.5443 55.4777 71.4942 55.8481 71.4041 56.1885C71.3039 56.5189 71.1636 56.8092 70.9733 57.0395C70.7829 57.2698 70.5425 57.45 70.262 57.5701C69.9714 57.6903 69.6408 57.7503 69.2702 57.7503H68.3585V51.9736H69.3303C70.0516 51.9736 70.6026 52.2039 70.9733 52.6644C71.354 53.1249 71.5443 53.7857 71.5443 54.6567V55.0572ZM66.9659 42.8429L66.3047 42.873L70.1217 46.6874L71.4542 45.3559C74.7302 46.9077 77.0745 50.0814 77.4252 53.8458H78.928C78.427 47.6886 73.2675 42.8429 66.9659 42.8429Z" fill="#0B0C0C"/>
</g>
</g>
<path d="M35.7011 103.375C35.0664 103.375 34.4994 103.265 34.0003 103.047C33.5042 102.828 33.1113 102.524 32.8217 102.136C32.5352 101.745 32.3811 101.292 32.3595 100.777H33.8108C33.8293 101.058 33.9233 101.301 34.0927 101.508C34.2653 101.711 34.4902 101.868 34.7675 101.979C35.0448 102.09 35.353 102.145 35.6919 102.145C36.0647 102.145 36.3944 102.081 36.681 101.951C36.9706 101.822 37.1971 101.642 37.3604 101.411C37.5237 101.176 37.6053 100.907 37.6053 100.602C37.6053 100.284 37.5237 100.006 37.3604 99.7652C37.2002 99.5217 36.9644 99.3307 36.6532 99.1921C36.3451 99.0534 35.9723 98.9841 35.5347 98.9841H34.7352V97.8194H35.5347C35.886 97.8194 36.1941 97.7562 36.4591 97.6299C36.7272 97.5035 36.9367 97.3279 37.0877 97.103C37.2387 96.875 37.3142 96.6084 37.3142 96.3034C37.3142 96.0107 37.2479 95.7565 37.1154 95.5408C36.986 95.322 36.8011 95.151 36.5608 95.0277C36.3235 94.9045 36.0432 94.8429 35.7196 94.8429C35.4115 94.8429 35.1234 94.8999 34.8553 95.0139C34.5903 95.1248 34.3747 95.285 34.2083 95.4946C34.0419 95.701 33.9525 95.949 33.9402 96.2387H32.5583C32.5737 95.7272 32.7247 95.2773 33.0112 94.8891C33.3008 94.5009 33.6829 94.1974 34.1574 93.9786C34.6319 93.7598 35.1588 93.6504 35.7381 93.6504C36.3451 93.6504 36.8689 93.7691 37.3095 94.0063C37.7532 94.2405 38.0953 94.5532 38.3356 94.9446C38.579 95.3359 38.6992 95.7642 38.6961 96.2294C38.6992 96.7594 38.5513 97.2093 38.2524 97.579C37.9566 97.9488 37.5622 98.1968 37.0692 98.3231V98.3971C37.6978 98.4926 38.1846 98.7422 38.5297 99.1458C38.8779 99.5495 39.0504 100.05 39.0474 100.648C39.0504 101.169 38.9056 101.635 38.6129 102.048C38.3233 102.461 37.9273 102.786 37.4251 103.024C36.9228 103.258 36.3482 103.375 35.7011 103.375ZM43.4705 103.384C42.8974 103.384 42.3859 103.238 41.936 102.945C41.4893 102.649 41.138 102.229 40.8822 101.683C40.6296 101.135 40.5033 100.477 40.5033 99.7097C40.5033 98.9425 40.6311 98.2862 40.8869 97.7408C41.1457 97.1954 41.5 96.7779 41.9499 96.4883C42.3998 96.1986 42.9097 96.0538 43.4797 96.0538C43.9204 96.0538 44.2747 96.1278 44.5428 96.2757C44.8139 96.4205 45.0234 96.5899 45.1713 96.7841C45.3223 96.9782 45.4394 97.1492 45.5226 97.2971H45.6058V93.7798H46.9877V103.245H45.6382V102.141H45.5226C45.4394 102.292 45.3192 102.464 45.1621 102.658C45.008 102.853 44.7954 103.022 44.5243 103.167C44.2531 103.312 43.9019 103.384 43.4705 103.384ZM43.7755 102.206C44.173 102.206 44.5089 102.101 44.7831 101.891C45.0604 101.679 45.2699 101.384 45.4117 101.008C45.5565 100.633 45.6289 100.195 45.6289 99.6958C45.6289 99.2028 45.558 98.7715 45.4163 98.4017C45.2746 98.032 45.0666 97.7439 44.7923 97.5374C44.5181 97.331 44.1792 97.2278 43.7755 97.2278C43.3596 97.2278 43.0129 97.3356 42.7356 97.5513C42.4583 97.767 42.2488 98.0612 42.107 98.4341C41.9684 98.8069 41.8991 99.2275 41.8991 99.6958C41.8991 100.17 41.9699 100.597 42.1117 100.976C42.2534 101.355 42.4629 101.656 42.7402 101.877C43.0206 102.096 43.3657 102.206 43.7755 102.206ZM54.4752 103.245V104.419H48.4621V103.245H54.4752ZM55.9888 103.245V96.1462H57.3245V97.274H57.3985C57.5279 96.8919 57.7559 96.5915 58.0825 96.3727C58.4122 96.1509 58.7851 96.0399 59.201 96.0399C59.2873 96.0399 59.389 96.043 59.5061 96.0492C59.6262 96.0553 59.7202 96.063 59.788 96.0723V97.3941C59.7325 97.3787 59.6339 97.3618 59.4922 97.3433C59.3505 97.3217 59.2087 97.311 59.067 97.311C58.7404 97.311 58.4492 97.3803 58.1935 97.5189C57.9408 97.6545 57.7405 97.844 57.5926 98.0874C57.4447 98.3278 57.3708 98.602 57.3708 98.9101V103.245H55.9888ZM63.7201 103.389C63.0545 103.389 62.4737 103.236 61.9776 102.931C61.4815 102.626 61.0964 102.199 60.8221 101.651C60.5479 101.102 60.4108 100.462 60.4108 99.7282C60.4108 98.9918 60.5479 98.3478 60.8221 97.7962C61.0964 97.2447 61.4815 96.8164 61.9776 96.5114C62.4737 96.2063 63.0545 96.0538 63.7201 96.0538C64.3856 96.0538 64.9664 96.2063 65.4625 96.5114C65.9586 96.8164 66.3437 97.2447 66.618 97.7962C66.8922 98.3478 67.0293 98.9918 67.0293 99.7282C67.0293 100.462 66.8922 101.102 66.618 101.651C66.3437 102.199 65.9586 102.626 65.4625 102.931C64.9664 103.236 64.3856 103.389 63.7201 103.389ZM63.7247 102.229C64.1561 102.229 64.5135 102.115 64.797 101.887C65.0804 101.659 65.29 101.355 65.4255 100.976C65.5642 100.597 65.6335 100.18 65.6335 99.7236C65.6335 99.2706 65.5642 98.8547 65.4255 98.4757C65.29 98.0936 65.0804 97.787 64.797 97.5559C64.5135 97.3248 64.1561 97.2093 63.7247 97.2093C63.2902 97.2093 62.9297 97.3248 62.6432 97.5559C62.3597 97.787 62.1486 98.0936 62.01 98.4757C61.8744 98.8547 61.8066 99.2706 61.8066 99.7236C61.8066 100.18 61.8744 100.597 62.01 100.976C62.1486 101.355 62.3597 101.659 62.6432 101.887C62.9297 102.115 63.2902 102.229 63.7247 102.229ZM71.8857 96.1462V97.2555H68.008V96.1462H71.8857ZM69.0479 94.4454H70.4299V101.161C70.4299 101.429 70.4699 101.631 70.55 101.766C70.6301 101.899 70.7334 101.99 70.8597 102.039C70.9891 102.085 71.1293 102.108 71.2803 102.108C71.3912 102.108 71.4883 102.101 71.5715 102.085C71.6546 102.07 71.7194 102.058 71.7656 102.048L72.0152 103.19C71.935 103.221 71.821 103.252 71.6731 103.282C71.5252 103.316 71.3404 103.335 71.1185 103.338C70.7549 103.344 70.416 103.279 70.1017 103.144C69.7874 103.008 69.5332 102.799 69.3391 102.515C69.145 102.232 69.0479 101.876 69.0479 101.448V94.4454ZM75.4804 103.403C75.0305 103.403 74.6238 103.319 74.2602 103.153C73.8966 102.984 73.6085 102.739 73.3959 102.418C73.1864 102.098 73.0817 101.705 73.0817 101.24C73.0817 100.839 73.1587 100.509 73.3127 100.25C73.4668 99.9916 73.6748 99.7867 73.9367 99.6358C74.1986 99.4848 74.4913 99.3708 74.8149 99.2937C75.1384 99.2167 75.4681 99.1582 75.8039 99.1181C76.2291 99.0688 76.5742 99.0287 76.8392 98.9979C77.1042 98.964 77.2968 98.9101 77.417 98.8362C77.5371 98.7622 77.5972 98.642 77.5972 98.4757V98.4433C77.5972 98.0397 77.4832 97.7269 77.2552 97.5051C77.0303 97.2832 76.6944 97.1723 76.2476 97.1723C75.7824 97.1723 75.4157 97.2755 75.1476 97.482C74.8826 97.6853 74.6993 97.9118 74.5976 98.1614L73.2989 97.8656C73.4529 97.4342 73.6779 97.086 73.9737 96.821C74.2726 96.553 74.6161 96.3588 75.0043 96.2387C75.3926 96.1154 75.8008 96.0538 76.2291 96.0538C76.5126 96.0538 76.813 96.0877 77.1304 96.1555C77.4509 96.2202 77.7497 96.3404 78.027 96.516C78.3074 96.6916 78.537 96.9427 78.7157 97.2694C78.8944 97.5929 78.9838 98.0135 78.9838 98.5311V103.245H77.6342V102.275H77.5787C77.4894 102.454 77.3553 102.629 77.1766 102.802C76.9979 102.974 76.7684 103.118 76.488 103.232C76.2076 103.346 75.8717 103.403 75.4804 103.403ZM75.7808 102.293C76.1629 102.293 76.4895 102.218 76.7607 102.067C77.0349 101.916 77.2429 101.719 77.3846 101.475C77.5294 101.229 77.6018 100.965 77.6018 100.685V99.7698C77.5525 99.8191 77.457 99.8653 77.3153 99.9084C77.1766 99.9485 77.0179 99.9839 76.8392 100.015C76.6605 100.042 76.4864 100.069 76.317 100.093C76.1475 100.115 76.0058 100.133 75.8917 100.149C75.6237 100.183 75.3787 100.24 75.1569 100.32C74.9381 100.4 74.7625 100.515 74.63 100.666C74.5006 100.814 74.4359 101.012 74.4359 101.258C74.4359 101.6 74.5622 101.859 74.8149 102.035C75.0675 102.207 75.3895 102.293 75.7808 102.293ZM84.1383 96.1462V97.2555H80.2606V96.1462H84.1383ZM81.3005 94.4454H82.6824V101.161C82.6824 101.429 82.7225 101.631 82.8026 101.766C82.8827 101.899 82.9859 101.99 83.1123 102.039C83.2417 102.085 83.3819 102.108 83.5329 102.108C83.6438 102.108 83.7408 102.101 83.824 102.085C83.9072 102.07 83.9719 102.058 84.0181 102.048L84.2677 103.19C84.1876 103.221 84.0736 103.252 83.9257 103.282C83.7778 103.316 83.5929 103.335 83.3711 103.338C83.0075 103.344 82.6686 103.279 82.3543 103.144C82.04 103.008 81.7858 102.799 81.5917 102.515C81.3975 102.232 81.3005 101.876 81.3005 101.448V94.4454ZM85.667 103.245V96.1462H87.0489V103.245H85.667ZM86.3649 95.0509C86.1246 95.0509 85.9181 94.9707 85.7456 94.8105C85.5761 94.6472 85.4914 94.4531 85.4914 94.2282C85.4914 94.0002 85.5761 93.806 85.7456 93.6458C85.9181 93.4825 86.1246 93.4009 86.3649 93.4009C86.6052 93.4009 86.8101 93.4825 86.9796 93.6458C87.1522 93.806 87.2384 94.0002 87.2384 94.2282C87.2384 94.4531 87.1522 94.6472 86.9796 94.8105C86.8101 94.9707 86.6052 95.0509 86.3649 95.0509ZM91.8984 103.389C91.2329 103.389 90.6521 103.236 90.156 102.931C89.6599 102.626 89.2748 102.199 89.0005 101.651C88.7263 101.102 88.5892 100.462 88.5892 99.7282C88.5892 98.9918 88.7263 98.3478 89.0005 97.7962C89.2748 97.2447 89.6599 96.8164 90.156 96.5114C90.6521 96.2063 91.2329 96.0538 91.8984 96.0538C92.564 96.0538 93.1448 96.2063 93.6409 96.5114C94.137 96.8164 94.5221 97.2447 94.7963 97.7962C95.0706 98.3478 95.2077 98.9918 95.2077 99.7282C95.2077 100.462 95.0706 101.102 94.7963 101.651C94.5221 102.199 94.137 102.626 93.6409 102.931C93.1448 103.236 92.564 103.389 91.8984 103.389ZM91.9031 102.229C92.3344 102.229 92.6919 102.115 92.9753 101.887C93.2588 101.659 93.4683 101.355 93.6039 100.976C93.7426 100.597 93.8119 100.18 93.8119 99.7236C93.8119 99.2706 93.7426 98.8547 93.6039 98.4757C93.4683 98.0936 93.2588 97.787 92.9753 97.5559C92.6919 97.3248 92.3344 97.2093 91.9031 97.2093C91.4686 97.2093 91.1081 97.3248 90.8215 97.5559C90.5381 97.787 90.327 98.0936 90.1883 98.4757C90.0528 98.8547 89.985 99.2706 89.985 99.7236C89.985 100.18 90.0528 100.597 90.1883 100.976C90.327 101.355 90.5381 101.659 90.8215 101.887C91.1081 102.115 91.4686 102.229 91.9031 102.229ZM98.1322 99.0303V103.245H96.7502V96.1462H98.0767V97.3017H98.1645C98.3278 96.9258 98.5836 96.6238 98.9318 96.3958C99.283 96.1678 99.7252 96.0538 100.258 96.0538C100.742 96.0538 101.166 96.1555 101.529 96.3588C101.893 96.5591 102.175 96.858 102.375 97.2555C102.575 97.653 102.675 98.1444 102.675 98.7299V103.245H101.294V98.8963C101.294 98.3817 101.16 97.9796 100.891 97.6899C100.623 97.3972 100.255 97.2509 99.7868 97.2509C99.4664 97.2509 99.1813 97.3202 98.9318 97.4589C98.6853 97.5975 98.4896 97.8009 98.3448 98.0689C98.203 98.3339 98.1322 98.6544 98.1322 99.0303Z" fill="#505A5F"/>
</g>
<defs>
<filter id="filter0_dd_85376_21949" x="0" y="0" width="133.926" height="144" filterUnits="userSpaceOnUse" color-interpolation-filters="sRGB">
<feFlood flood-opacity="0" result="BackgroundImageFix"/>
<feColorMatrix in="SourceAlpha" type="matrix" values="0 0 0 0 0 0 0 0 0 0 0 0 0 0 0 0 0 0 127 0" result="hardAlpha"/>
<feMorphology radius="1" operator="erode" in="SourceAlpha" result="effect1_dropShadow_85376_21949"/>
<feOffset dy="1"/>
<feGaussianBlur stdDeviation="1"/>
<feComposite in2="hardAlpha" operator="out"/>
<feColorMatrix type="matrix" values="0 0 0 0 0 0 0 0 0 0 0 0 0 0 0 0 0 0 0.1 0"/>
<feBlend mode="normal" in2="BackgroundImageFix" result="effect1_dropShadow_85376_21949"/>
<feColorMatrix in="SourceAlpha" type="matrix" values="0 0 0 0 0 0 0 0 0 0 0 0 0 0 0 0 0 0 127 0" result="hardAlpha"/>
<feOffset dy="1"/>
<feGaussianBlur stdDeviation="1.5"/>
<feComposite in2="hardAlpha" operator="out"/>
<feColorMatrix type="matrix" values="0 0 0 0 0 0 0 0 0 0 0 0 0 0 0 0 0 0 0.1 0"/>
<feBlend mode="normal" in2="effect1_dropShadow_85376_21949" result="effect2_dropShadow_85376_21949"/>
<feBlend mode="normal" in="SourceGraphic" in2="effect2_dropShadow_85376_21949" result="shape"/>
</filter>
<clipPath id="clip0_85376_21949">
<rect width="24" height="24" fill="white" transform="translate(54.9508 42.8429) scale(1.00117)"/>
</clipPath>
<clipPath id="clip1_85376_21949">
<rect width="23.9062" height="24" fill="white" transform="translate(54.9938 42.8429) scale(1.00117)"/>
</clipPath>
</defs>
</svg>
