<svg width="134" height="144" viewBox="0 0 134 144" fill="none" xmlns="http://www.w3.org/2000/svg">
<g filter="url(#filter0_dd_85376_21973)">
<mask id="path-1-inside-1_85376_21973" fill="white">
<path d="M3.0035 16.0187C3.0035 8.27766 9.27884 2.00234 17.0199 2.00234H116.907C124.648 2.00234 130.924 8.27767 130.924 16.0187V125.98C130.924 133.721 124.648 139.997 116.907 139.997H17.0199C9.27884 139.997 3.0035 133.721 3.0035 125.98V16.0187Z"/>
</mask>
<path d="M3.0035 16.0187C3.0035 8.27766 9.27884 2.00234 17.0199 2.00234H116.907C124.648 2.00234 130.924 8.27767 130.924 16.0187V125.98C130.924 133.721 124.648 139.997 116.907 139.997H17.0199C9.27884 139.997 3.0035 133.721 3.0035 125.98V16.0187Z" fill="white" shape-rendering="crispEdges"/>
<path d="M17.0199 2.00234V2.66978H116.907V2.00234V1.33489H17.0199V2.00234ZM130.924 16.0187H130.256V125.98H130.924H131.591V16.0187H130.924ZM116.907 139.997V139.329H17.0199V139.997V140.664H116.907V139.997ZM3.0035 125.98H3.67095V16.0187H3.0035H2.33606V125.98H3.0035ZM17.0199 139.997V139.329C9.64746 139.329 3.67095 133.353 3.67095 125.98H3.0035H2.33606C2.33606 134.09 8.91022 140.664 17.0199 140.664V139.997ZM130.924 125.98H130.256C130.256 133.353 124.28 139.329 116.907 139.329V139.997V140.664C125.017 140.664 131.591 134.09 131.591 125.98H130.924ZM116.907 2.00234V2.66978C124.28 2.66978 130.256 8.64629 130.256 16.0187H130.924H131.591C131.591 7.90905 125.017 1.33489 116.907 1.33489V2.00234ZM17.0199 2.00234V1.33489C8.91022 1.33489 2.33606 7.90904 2.33606 16.0187H3.0035H3.67095C3.67095 8.64628 9.64746 2.66978 17.0199 2.66978V2.00234Z" fill="#D9D9D9" mask="url(#path-1-inside-1_85376_21973)"/>
<g clip-path="url(#clip0_85376_21973)">
<path d="M66.9648 48.8486C68.0707 48.8486 68.9672 47.9498 68.9672 46.8411C68.9672 45.7324 68.0707 44.8335 66.9648 44.8335C65.859 44.8335 64.9625 45.7324 64.9625 46.8411C64.9625 47.9498 65.859 48.8486 66.9648 48.8486Z" fill="#0B0C0C"/>
</g>
<g clip-path="url(#clip1_85376_21973)">
<path d="M73.9821 55.8555V53.8502C72.438 53.8703 70.8839 53.0983 69.9013 52.0155L68.6079 50.5817C68.4374 50.3912 68.2269 50.2408 67.9962 50.1305C67.9862 50.1305 67.9862 50.1205 67.9762 50.1205H67.9662C67.6152 49.92 67.2142 49.8197 66.773 49.8598C65.7202 49.9501 64.9582 50.8825 64.9582 51.9352V57.8607C64.9582 58.9636 65.8606 59.866 66.9635 59.866H71.9768V64.879H73.9821V59.3646C73.9821 58.2618 73.0797 57.3594 71.9768 57.3594H68.9688V53.9004C70.2622 54.9732 72.2274 55.8455 73.9821 55.8555ZM67.7957 60.8686C67.3846 62.0316 66.2717 62.8738 64.9582 62.8738C63.2938 62.8738 61.9502 61.5303 61.9502 59.866C61.9502 58.5525 62.7925 57.4496 63.9555 57.0285V54.9531C61.6695 55.4143 59.9449 57.4396 59.9449 59.866C59.9449 62.6332 62.1909 64.879 64.9582 64.879C67.3846 64.879 69.41 63.1545 69.8712 60.8686H67.7957Z" fill="#0B0C0C"/>
</g>
<path d="M36.6064 103.403C36.1566 103.403 35.7499 103.319 35.3863 103.153C35.0227 102.984 34.7346 102.739 34.522 102.418C34.3125 102.098 34.2077 101.705 34.2077 101.24C34.2077 100.839 34.2847 100.509 34.4388 100.25C34.5928 99.9916 34.8008 99.7867 35.0627 99.6358C35.3246 99.4848 35.6174 99.3708 35.9409 99.2937C36.2644 99.2167 36.5941 99.1582 36.93 99.1181C37.3552 99.0688 37.7003 99.0287 37.9653 98.9979C38.2303 98.964 38.4228 98.9101 38.543 98.8362C38.6632 98.7622 38.7233 98.642 38.7233 98.4757V98.4433C38.7233 98.0397 38.6093 97.7269 38.3812 97.5051C38.1563 97.2832 37.8205 97.1723 37.3737 97.1723C36.9084 97.1723 36.5417 97.2755 36.2737 97.482C36.0087 97.6853 35.8253 97.9118 35.7237 98.1614L34.4249 97.8656C34.579 97.4342 34.8039 97.086 35.0997 96.821C35.3986 96.553 35.7422 96.3588 36.1304 96.2387C36.5186 96.1154 36.9269 96.0538 37.3552 96.0538C37.6387 96.0538 37.9391 96.0877 38.2564 96.1555C38.5769 96.2202 38.8758 96.3404 39.1531 96.516C39.4335 96.6916 39.663 96.9427 39.8418 97.2694C40.0205 97.5929 40.1098 98.0135 40.1098 98.5311V103.245H38.7602V102.275H38.7048C38.6154 102.454 38.4814 102.629 38.3027 102.802C38.124 102.974 37.8944 103.118 37.614 103.232C37.3336 103.346 36.9978 103.403 36.6064 103.403ZM36.9069 102.293C37.2889 102.293 37.6156 102.218 37.8867 102.067C38.1609 101.916 38.3689 101.719 38.5107 101.475C38.6555 101.229 38.7279 100.965 38.7279 100.685V99.7698C38.6786 99.8191 38.5831 99.8653 38.4413 99.9084C38.3027 99.9485 38.144 99.9839 37.9653 100.015C37.7866 100.042 37.6125 100.069 37.443 100.093C37.2735 100.115 37.1318 100.133 37.0178 100.149C36.7497 100.183 36.5048 100.24 36.2829 100.32C36.0641 100.4 35.8885 100.515 35.756 100.666C35.6266 100.814 35.5619 101.012 35.5619 101.258C35.5619 101.6 35.6882 101.859 35.9409 102.035C36.1936 102.207 36.5155 102.293 36.9069 102.293ZM44.9408 103.389C44.2537 103.389 43.6621 103.233 43.166 102.922C42.673 102.608 42.294 102.175 42.029 101.623C41.7641 101.072 41.6316 100.44 41.6316 99.7282C41.6316 99.0072 41.7671 98.3709 42.0383 97.8194C42.3094 97.2647 42.6915 96.8318 43.1845 96.5206C43.6775 96.2094 44.2583 96.0538 44.927 96.0538C45.4662 96.0538 45.9469 96.1539 46.369 96.3542C46.7911 96.5514 47.1316 96.8287 47.3904 97.1862C47.6523 97.5436 47.8079 97.9611 47.8572 98.4387H46.5123C46.4383 98.1059 46.2688 97.8194 46.0039 97.579C45.742 97.3387 45.3907 97.2185 44.9501 97.2185C44.5649 97.2185 44.2275 97.3202 43.9379 97.5236C43.6513 97.7238 43.4279 98.0104 43.2677 98.3832C43.1075 98.753 43.0274 99.1905 43.0274 99.6958C43.0274 100.213 43.1059 100.66 43.2631 101.036C43.4202 101.412 43.6421 101.703 43.9286 101.91C44.2183 102.116 44.5588 102.219 44.9501 102.219C45.212 102.219 45.4492 102.172 45.6618 102.076C45.8775 101.977 46.0578 101.837 46.2026 101.656C46.3505 101.474 46.4537 101.255 46.5123 100.999H47.8572C47.8079 101.458 47.6585 101.868 47.4089 102.229C47.1593 102.589 46.825 102.873 46.406 103.079C45.99 103.285 45.5016 103.389 44.9408 103.389ZM52.3254 103.389C51.6383 103.389 51.0467 103.233 50.5506 102.922C50.0576 102.608 49.6786 102.175 49.4136 101.623C49.1487 101.072 49.0162 100.44 49.0162 99.7282C49.0162 99.0072 49.1517 98.3709 49.4229 97.8194C49.694 97.2647 50.0761 96.8318 50.5691 96.5206C51.0621 96.2094 51.6429 96.0538 52.3116 96.0538C52.8508 96.0538 53.3314 96.1539 53.7536 96.3542C54.1757 96.5514 54.5162 96.8287 54.775 97.1862C55.0369 97.5436 55.1925 97.9611 55.2418 98.4387H53.8969C53.8229 98.1059 53.6534 97.8194 53.3884 97.579C53.1265 97.3387 52.7753 97.2185 52.3347 97.2185C51.9495 97.2185 51.6121 97.3202 51.3225 97.5236C51.0359 97.7238 50.8125 98.0104 50.6523 98.3832C50.4921 98.753 50.412 99.1905 50.412 99.6958C50.412 100.213 50.4905 100.66 50.6477 101.036C50.8048 101.412 51.0267 101.703 51.3132 101.91C51.6029 102.116 51.9433 102.219 52.3347 102.219C52.5966 102.219 52.8338 102.172 53.0464 102.076C53.2621 101.977 53.4424 101.837 53.5872 101.656C53.7351 101.474 53.8383 101.255 53.8969 100.999H55.2418C55.1925 101.458 55.0431 101.868 54.7935 102.229C54.5439 102.589 54.2096 102.873 53.7905 103.079C53.3746 103.285 52.8862 103.389 52.3254 103.389ZM59.7793 103.389C59.0799 103.389 58.4775 103.239 57.9722 102.94C57.4699 102.638 57.0817 102.215 56.8075 101.669C56.5363 101.121 56.4007 100.478 56.4007 99.7421C56.4007 99.0149 56.5363 98.374 56.8075 97.8194C57.0817 97.2647 57.4638 96.8318 57.9537 96.5206C58.4467 96.2094 59.0229 96.0538 59.6823 96.0538C60.0828 96.0538 60.4711 96.1201 60.847 96.2525C61.2229 96.385 61.5603 96.593 61.8592 96.8765C62.1581 97.16 62.3938 97.5282 62.5663 97.9811C62.7389 98.431 62.8251 98.9779 62.8251 99.6219V100.112H57.1818V99.0765H61.4709C61.4709 98.7129 61.397 98.3909 61.2491 98.1105C61.1012 97.8271 60.8932 97.6037 60.6251 97.4404C60.3602 97.2771 60.0489 97.1954 59.6915 97.1954C59.3033 97.1954 58.9643 97.2909 58.6747 97.482C58.3882 97.6699 58.1663 97.9164 58.0092 98.2215C57.8551 98.5234 57.7781 98.8516 57.7781 99.2059V100.015C57.7781 100.489 57.8613 100.893 58.0276 101.226C58.1971 101.558 58.4328 101.813 58.7348 101.988C59.0368 102.161 59.3896 102.247 59.7932 102.247C60.0551 102.247 60.2939 102.21 60.5096 102.136C60.7253 102.059 60.9117 101.945 61.0688 101.794C61.226 101.643 61.3461 101.457 61.4293 101.235L62.7373 101.471C62.6326 101.856 62.4446 102.193 62.1735 102.483C61.9054 102.769 61.568 102.993 61.1613 103.153C60.7576 103.31 60.297 103.389 59.7793 103.389ZM69.6782 97.8794L68.4257 98.1013C68.3733 97.9411 68.2901 97.7885 68.1761 97.6437C68.0652 97.4989 67.9142 97.3803 67.7232 97.2878C67.5321 97.1954 67.2933 97.1492 67.0068 97.1492C66.6155 97.1492 66.2889 97.237 66.0269 97.4126C65.765 97.5852 65.6341 97.8086 65.6341 98.0828C65.6341 98.3201 65.7219 98.5111 65.8975 98.6559C66.0732 98.8007 66.3566 98.9194 66.748 99.0118L67.8757 99.2706C68.5289 99.4216 69.0158 99.6542 69.3362 99.9685C69.6567 100.283 69.8169 100.691 69.8169 101.193C69.8169 101.619 69.6936 101.998 69.4471 102.33C69.2037 102.66 68.8632 102.919 68.4257 103.107C67.9912 103.295 67.4875 103.389 66.9143 103.389C66.1194 103.389 65.4708 103.219 64.9685 102.88C64.4663 102.538 64.1582 102.053 64.0442 101.424L65.3799 101.221C65.4631 101.569 65.6341 101.833 65.8929 102.011C66.1517 102.187 66.4891 102.275 66.9051 102.275C67.358 102.275 67.7201 102.181 67.9912 101.993C68.2624 101.802 68.398 101.569 68.398 101.295C68.398 101.073 68.3148 100.887 68.1484 100.736C67.9851 100.585 67.734 100.471 67.395 100.394L66.1933 100.13C65.5309 99.9793 65.0409 99.739 64.7236 99.4093C64.4093 99.0796 64.2521 98.6621 64.2521 98.1568C64.2521 97.7377 64.3692 97.371 64.6034 97.0567C64.8376 96.7425 65.1611 96.4975 65.574 96.3219C65.9869 96.1432 66.4599 96.0538 66.9929 96.0538C67.7601 96.0538 68.3641 96.2202 68.8047 96.553C69.2453 96.8827 69.5365 97.3248 69.6782 97.8794ZM76.6561 97.8794L75.4036 98.1013C75.3512 97.9411 75.268 97.7885 75.154 97.6437C75.0431 97.4989 74.8921 97.3803 74.701 97.2878C74.51 97.1954 74.2712 97.1492 73.9846 97.1492C73.5933 97.1492 73.2667 97.237 73.0048 97.4126C72.7429 97.5852 72.612 97.8086 72.612 98.0828C72.612 98.3201 72.6998 98.5111 72.8754 98.6559C73.051 98.8007 73.3345 98.9194 73.7258 99.0118L74.8536 99.2706C75.5068 99.4216 75.9936 99.6542 76.3141 99.9685C76.6345 100.283 76.7947 100.691 76.7947 101.193C76.7947 101.619 76.6715 101.998 76.425 102.33C76.1816 102.66 75.8411 102.919 75.4036 103.107C74.9691 103.295 74.4653 103.389 73.8922 103.389C73.0972 103.389 72.4486 103.219 71.9464 102.88C71.4442 102.538 71.136 102.053 71.022 101.424L72.3578 101.221C72.4409 101.569 72.612 101.833 72.8708 102.011C73.1296 102.187 73.467 102.275 73.883 102.275C74.3359 102.275 74.698 102.181 74.9691 101.993C75.2403 101.802 75.3758 101.569 75.3758 101.295C75.3758 101.073 75.2926 100.887 75.1262 100.736C74.9629 100.585 74.7118 100.471 74.3729 100.394L73.1712 100.13C72.5087 99.9793 72.0188 99.739 71.7014 99.4093C71.3872 99.0796 71.23 98.6621 71.23 98.1568C71.23 97.7377 71.3471 97.371 71.5813 97.0567C71.8155 96.7425 72.139 96.4975 72.5519 96.3219C72.9648 96.1432 73.4377 96.0538 73.9708 96.0538C74.738 96.0538 75.3419 96.2202 75.7826 96.553C76.2232 96.8827 76.5144 97.3248 76.6561 97.8794ZM78.3142 103.245V96.1462H79.6961V103.245H78.3142ZM79.0121 95.0509C78.7717 95.0509 78.5653 94.9707 78.3928 94.8105C78.2233 94.6472 78.1386 94.4531 78.1386 94.2282C78.1386 94.0002 78.2233 93.806 78.3928 93.6458C78.5653 93.4825 78.7717 93.4009 79.0121 93.4009C79.2524 93.4009 79.4573 93.4825 79.6268 93.6458C79.7993 93.806 79.8856 94.0002 79.8856 94.2282C79.8856 94.4531 79.7993 94.6472 79.6268 94.8105C79.4573 94.9707 79.2524 95.0509 79.0121 95.0509ZM81.6662 103.245V93.7798H83.0481V97.2971H83.1313C83.2114 97.1492 83.327 96.9782 83.478 96.7841C83.6289 96.5899 83.8385 96.4205 84.1065 96.2757C84.3746 96.1278 84.729 96.0538 85.1696 96.0538C85.7427 96.0538 86.2542 96.1986 86.704 96.4883C87.1539 96.7779 87.5067 97.1954 87.7624 97.7408C88.0213 98.2862 88.1507 98.9425 88.1507 99.7097C88.1507 100.477 88.0228 101.135 87.7671 101.683C87.5113 102.229 87.1601 102.649 86.7133 102.945C86.2665 103.238 85.7565 103.384 85.1834 103.384C84.7521 103.384 84.3993 103.312 84.125 103.167C83.8539 103.022 83.6413 102.853 83.4872 102.658C83.3331 102.464 83.2145 102.292 83.1313 102.141H83.0158V103.245H81.6662ZM83.0204 99.6958C83.0204 100.195 83.0928 100.633 83.2376 101.008C83.3824 101.384 83.592 101.679 83.8662 101.891C84.1404 102.101 84.4763 102.206 84.8738 102.206C85.2867 102.206 85.6318 102.096 85.9091 101.877C86.1864 101.656 86.3959 101.355 86.5376 100.976C86.6825 100.597 86.7549 100.17 86.7549 99.6958C86.7549 99.2275 86.684 98.8069 86.5423 98.4341C86.4036 98.0612 86.1941 97.767 85.9137 97.5513C85.6364 97.3356 85.2897 97.2278 84.8738 97.2278C84.4732 97.2278 84.1343 97.331 83.857 97.5374C83.5827 97.7439 83.3747 98.032 83.233 98.4017C83.0913 98.7715 83.0204 99.2028 83.0204 99.6958ZM91.0844 93.7798V103.245H89.7025V93.7798H91.0844ZM96.0032 103.389C95.3038 103.389 94.7014 103.239 94.1961 102.94C93.6938 102.638 93.3056 102.215 93.0314 101.669C92.7602 101.121 92.6246 100.478 92.6246 99.7421C92.6246 99.0149 92.7602 98.374 93.0314 97.8194C93.3056 97.2647 93.6877 96.8318 94.1776 96.5206C94.6706 96.2094 95.2468 96.0538 95.9062 96.0538C96.3067 96.0538 96.695 96.1201 97.0709 96.2525C97.4468 96.385 97.7842 96.593 98.0831 96.8765C98.382 97.16 98.6177 97.5282 98.7902 97.9811C98.9628 98.431 99.049 98.9779 99.049 99.6219V100.112H93.4057V99.0765H97.6948C97.6948 98.7129 97.6209 98.3909 97.473 98.1105C97.3251 97.8271 97.1171 97.6037 96.849 97.4404C96.584 97.2771 96.2728 97.1954 95.9154 97.1954C95.5272 97.1954 95.1882 97.2909 94.8986 97.482C94.612 97.6699 94.3902 97.9164 94.2331 98.2215C94.079 98.5234 94.002 98.8516 94.002 99.2059V100.015C94.002 100.489 94.0852 100.893 94.2515 101.226C94.421 101.558 94.6567 101.813 94.9587 101.988C95.2606 102.161 95.6135 102.247 96.0171 102.247C96.279 102.247 96.5178 102.21 96.7335 102.136C96.9492 102.059 97.1356 101.945 97.2927 101.794C97.4499 101.643 97.57 101.457 97.6532 101.235L98.9612 101.471C98.8565 101.856 98.6685 102.193 98.3974 102.483C98.1293 102.769 97.7919 102.993 97.3852 103.153C96.9815 103.31 96.5209 103.389 96.0032 103.389Z" fill="#505A5F"/>
</g>
<defs>
<filter id="filter0_dd_85376_21973" x="0" y="0" width="133.926" height="144" filterUnits="userSpaceOnUse" color-interpolation-filters="sRGB">
<feFlood flood-opacity="0" result="BackgroundImageFix"/>
<feColorMatrix in="SourceAlpha" type="matrix" values="0 0 0 0 0 0 0 0 0 0 0 0 0 0 0 0 0 0 127 0" result="hardAlpha"/>
<feMorphology radius="1" operator="erode" in="SourceAlpha" result="effect1_dropShadow_85376_21973"/>
<feOffset dy="1"/>
<feGaussianBlur stdDeviation="1"/>
<feComposite in2="hardAlpha" operator="out"/>
<feColorMatrix type="matrix" values="0 0 0 0 0 0 0 0 0 0 0 0 0 0 0 0 0 0 0.1 0"/>
<feBlend mode="normal" in2="BackgroundImageFix" result="effect1_dropShadow_85376_21973"/>
<feColorMatrix in="SourceAlpha" type="matrix" values="0 0 0 0 0 0 0 0 0 0 0 0 0 0 0 0 0 0 127 0" result="hardAlpha"/>
<feOffset dy="1"/>
<feGaussianBlur stdDeviation="1.5"/>
<feComposite in2="hardAlpha" operator="out"/>
<feColorMatrix type="matrix" values="0 0 0 0 0 0 0 0 0 0 0 0 0 0 0 0 0 0 0.1 0"/>
<feBlend mode="normal" in2="effect1_dropShadow_85376_21973" result="effect2_dropShadow_85376_21973"/>
<feBlend mode="normal" in="SourceGraphic" in2="effect2_dropShadow_85376_21973" result="shape"/>
</filter>
<clipPath id="clip0_85376_21973">
<rect width="4" height="4.01042" fill="white" transform="translate(64.9625 44.8335) scale(1.00117)"/>
</clipPath>
<clipPath id="clip1_85376_21973">
<rect width="14.0208" height="15.0104" fill="white" transform="translate(59.9449 49.8511) scale(1.00117)"/>
</clipPath>
</defs>
</svg>
